<?xml version="1.0" encoding="UTF-8" standalone="no"?>
<!DOCTYPE svg  PUBLIC '-//W3C//DTD SVG 1.1//EN'  'http://www.w3.org/Graphics/SVG/1.1/DTD/svg11.dtd'>
<svg version="1.1" xmlns="http://www.w3.org/2000/svg">
<defs>
<font id="PFDinDisplayPro-Italic" horiz-adv-x="500">
<font-face font-weight="400" ascent="750" underline-position="-160" units-per-em="1000" font-style="italic" cap-height="689" panose-1="2 0 5 6 5 0 0 9 0 4" bbox="-107 -211 1014 910" descent="-250" underline-thickness="60" x-height="495" unicode-range="U+0020-04D9" font-family="o" slope="-12"/>
<missing-glyph/>
<glyph horiz-adv-x="240" glyph-name="space" unicode=" "/>
<glyph horiz-adv-x="237" d="M152 189h-75l92 507h89zM98 112q26 0 38.5 -14t12.5 -32q0 -29 -20.5 -50t-52.5 -21q-23 0 -35 12.5t-12 32.5q0 12 4.5 24.5t13 23t21.5 17.5t30 7z" glyph-name="exclam" unicode="!"/>
<glyph horiz-adv-x="306" d="M237 509l36 187h69l-36 -187h-69zM115 509l36 187h69l-36 -187h-69z" glyph-name="quotedbl" unicode='&quot;'/>
<glyph horiz-adv-x="516" d="M432 421l-47 -143h94l-12 -65h-103l-71 -213h-73l71 213h-111l-70 -213h-74l72 213h-90l13 65h99l48 143h-91l12 64h100l71 210h69l-69 -210h113l70 210h70l-69 -210h94l-13 -64h-103zM249 421l-47 -143h111l48 143h-112z" glyph-name="numbersign" unicode="#"/>
<glyph d="M460 213q0 -48 -18 -86t-49.5 -65t-73 -43t-89.5 -20l-19 -97h-60l19 97q-54 4 -102.5 23t-85.5 58l56 63q35 -31 79.5 -47.5t92.5 -16.5q71 0 113.5 30.5t42.5 92.5q0 31 -11.5 49t-29.5 29t-40.5 16.5t-45.5 11.5q-29 7 -57.5 19.5t-51.5 32t-37.5 48.5t-14.5 70 q0 48 17 85t47 63.5t69.5 42t84.5 20.5l16 83h60l-18 -82q45 -2 86.5 -14.5t77.5 -38.5l-45 -70q-35 25 -76.5 34.5t-83.5 9.5q-23 0 -49 -8t-47.5 -23.5t-36 -39t-14.5 -54.5q0 -25 11 -41.5t28.5 -27.5t38 -17.5t40.5 -11.5q28 -7 59 -17.5t57 -29.5t43 -49.5t17 -78.5z " glyph-name="dollar" unicode="$"/>
<glyph horiz-adv-x="788" d="M730 109q-10 -54 -49 -83t-98 -29q-24 0 -48 7t-43 21.5t-31 35.5t-12 49q0 5 0.5 11.5t1.5 12.5l31 164q5 27 14.5 49t26 38.5t42 25.5t61.5 9q32 0 57 -9.5t42 -26t26 -38t9 -44.5v-12t-2 -12zM688 282q2 10 2 15q0 27 -19.5 42.5t-47.5 15.5q-21 0 -42 -13t-27 -47 l-29 -160q-1 -5 -1 -8.5v-7.5q0 -17 6 -28t15 -17.5t20 -9.5t21 -3q23 0 45.5 13t29.5 47zM347 385q-10 -54 -49 -83t-98 -29q-24 0 -48 7t-43 21.5t-31 35.5t-12 49q0 5 0.5 11.5t1.5 12.5l31 164q5 27 14.5 49t26 38.5t42 25.5t61.5 9q32 0 57 -9.5t42 -26t26 -38t9 -44.5 v-12t-2 -12zM305 558q2 10 2 15q0 27 -19.5 42.5t-47.5 15.5q-21 0 -42 -13t-27 -47l-29 -160q-1 -5 -1 -8.5v-7.5q0 -17 6 -28t15 -17.5t20 -9.5t21 -3q23 0 45.5 13t29.5 47zM169 -17h-66l567 730h67z" glyph-name="percent" unicode="%"/>
<glyph horiz-adv-x="813" d="M711 -52q-41 19 -83 52t-71 68q-51 -34 -113.5 -54.5t-122.5 -20.5q-80 0 -126.5 39.5t-46.5 115.5q0 44 15.5 81.5t43 69.5t66 59.5t84.5 50.5q-16 31 -23 58.5t-7 47.5q0 37 13 68t36 54t54.5 36t67.5 13q57 0 90.5 -31t33.5 -78q0 -34 -12.5 -62t-35 -51.5t-52.5 -44 t-65 -39.5q24 -51 56 -107.5t69 -110.5q37 31 68.5 66t54.5 75t36 85.5t13 98.5q0 46 -12 91.5t-39.5 81.5t-72.5 58.5t-111 22.5q-74 0 -135 -22.5t-104.5 -62.5t-67 -95.5t-23.5 -122.5q0 -26 3 -51l-70 -15q-2 16 -3 31.5t-1 29.5q0 84 32 152.5t86.5 117.5t127.5 75.5 t155 26.5q73 0 130 -25t95 -67t58 -97.5t20 -115.5t-15 -114.5t-42 -103t-64 -91t-81 -78.5q29 -34 62 -60t71 -43zM485 618q-21 0 -36.5 -10t-25 -24.5t-14 -30.5t-4.5 -28q0 -19 7 -39t18 -43q23 11 44 23.5t36.5 27t25 31.5t9.5 38q0 25 -17 40t-43 15zM519 118 q-40 54 -74 117t-57 113q-36 -17 -66 -36t-52 -41.5t-34.5 -49.5t-12.5 -60q0 -51 32.5 -76t80.5 -25q42 0 89 14.5t94 43.5z" glyph-name="ampersand" unicode="&amp;"/>
<glyph horiz-adv-x="257" d="M156 509l37 187h69l-37 -187h-69z" glyph-name="quotesingle" unicode="&apos;"/>
<glyph horiz-adv-x="284" d="M170 -120q-51 72 -80.5 156.5t-29.5 173.5q0 76 22 148.5t59.5 138.5t87 124.5t103.5 108.5l39 -28q-47 -51 -88 -110t-71 -123.5t-47 -133.5t-17 -140q0 -73 17.5 -145.5t52.5 -137.5l-48 -32v0z" glyph-name="parenleft" unicode="("/>
<glyph horiz-adv-x="284" d="M-57 -88q47 50 88 109t71 124t47.5 134t17.5 139q0 73 -18 146t-53 138l50 28q51 -72 79.5 -154t28.5 -170q0 -78 -22.5 -151t-60 -139.5t-88 -126t-105.5 -109.5z" glyph-name="parenright" unicode=")"/>
<glyph horiz-adv-x="361" d="M345 442q-16 -11 -31.5 -21.5t-32.5 -21.5l-42 104q-20 -26 -41.5 -52.5t-41.5 -52.5q-11 11 -24 21.5t-24 21.5l96 91q-26 7 -53.5 15t-53.5 15l31 65l102 -47l14 120h68l-34 -120q29 11 60 23t60 24l7 -66l-120 -29z" glyph-name="asterisk" unicode="*"/>
<glyph d="M292 262l-37 -192h-64l37 192h-189l13 64h189l37 190h64l-37 -190h188l-13 -64h-188z" glyph-name="plus" unicode="+"/>
<glyph horiz-adv-x="250" d="M102 110q31 0 44 -18t13 -41q0 -30 -13 -59t-33 -53.5t-44.5 -43t-47.5 -28.5l-23 39q26 17 44 37.5t26 50.5q-17 2 -26 14t-9 30q0 12 4.5 25t13 23.5t21.5 17t30 6.5z" glyph-name="comma" unicode=","/>
<glyph horiz-adv-x="392" d="M56 230l15 75h288l-15 -75h-288z" glyph-name="hyphen" unicode="-"/>
<glyph horiz-adv-x="219" d="M91 112q26 0 38.5 -14t12.5 -32q0 -29 -20.5 -50t-52.5 -21q-23 0 -35 12.5t-12 32.5q0 12 4.5 24.5t13 23t21.5 17.5t30 7z" glyph-name="period" unicode="."/>
<glyph horiz-adv-x="317" d="M15 -42h-64l399 767h65z" glyph-name="slash" unicode="/"/>
<glyph d="M457 187q-9 -51 -30.5 -87t-52.5 -59.5t-69.5 -34.5t-81.5 -11q-33 0 -66.5 10t-60 31t-43 54.5t-16.5 81.5q0 31 7 65l59 273q19 85 74.5 135.5t152.5 50.5q34 0 67.5 -10t60 -30.5t43 -52.5t16.5 -76q0 -11 -1.5 -22.5t-3.5 -23.5zM429 494q3 13 3 26q0 26 -10.5 44 t-26.5 29t-35.5 16t-37.5 5q-51 0 -88.5 -31.5t-51.5 -98.5l-55 -280q-3 -17 -3 -31q0 -27 10 -46t25.5 -30.5t34 -16.5t36.5 -5q50 0 88.5 26.5t51.5 92.5z" glyph-name="zero" unicode="0"/>
<glyph d="M205 0l113 583l-109 -77l-34 63l168 120h81l-133 -689h-86z" glyph-name="one" unicode="1"/>
<glyph d="M331 696q34 0 68 -8.5t61 -27t44 -48t17 -72.5q0 -49 -23.5 -88t-58.5 -71t-75.5 -58t-74.5 -47q-21 -14 -49.5 -32t-55.5 -42t-49 -55t-29 -70h324l-14 -77h-414l15 81q8 42 29.5 78.5t51.5 68t66.5 58t74.5 49.5q34 19 67.5 40.5t60.5 45.5t44 50.5t17 56.5 q0 23 -9.5 39t-25 26.5t-36 15.5t-42.5 5q-42 0 -80.5 -14.5t-70.5 -37.5l-37 67q40 29 93 48t111 19z" glyph-name="two" unicode="2"/>
<glyph d="M304 695q37 0 71.5 -8t60 -26t41 -47t15.5 -71q0 -30 -9.5 -59.5t-27 -55t-41 -45.5t-51.5 -33q35 -14 53 -47t18 -75q0 -58 -19.5 -102t-53.5 -73.5t-80 -44.5t-98 -15q-63 0 -114 20.5t-77 48.5l61 68q23 -23 58.5 -39.5t72.5 -16.5q83 0 122 39.5t39 108.5 q0 44 -27.5 68.5t-71.5 24.5h-70l15 77h72q21 0 45.5 9.5t45.5 26.5t35 42t14 56q0 26 -11 43t-28 27t-37 14t-38 4q-37 0 -76 -17t-71 -40l-45 68q38 28 91 49t116 21z" glyph-name="three" unicode="3"/>
<glyph d="M394 106l-19 -106h-89l20 106h-300l14 74l328 509h92l-322 -505h203l40 206h88l-40 -206h59l-15 -78h-59z" glyph-name="four" unicode="4"/>
<glyph d="M451 177q-19 -98 -79.5 -140t-154.5 -42q-65 0 -117 22t-81 48l54 69q31 -29 69.5 -43.5t77.5 -14.5q25 0 48.5 6t42.5 19t32 34.5t19 53.5l16 89q3 15 3 28q0 35 -19 52.5t-53 17.5q-16 0 -36.5 -5.5t-41.5 -13.5t-41 -19t-35 -21l-75 32l66 340h380l-15 -81h-291 l-38 -196q48 26 86 39t67 13q66 0 102 -35.5t36 -95.5q0 -11 -1.5 -22t-3.5 -23l-17 -111v0z" glyph-name="five" unicode="5"/>
<glyph d="M103 513q17 87 77 135t157 48q65 0 111 -20.5t73 -49.5l-60 -70q-52 57 -129 57q-22 0 -45 -6t-43 -20t-35 -36.5t-21 -55.5l-22 -113q56 27 98 41.5t72 14.5q66 0 100.5 -36t34.5 -96q0 -11 -1.5 -22t-3.5 -23l-16 -84q-18 -94 -78.5 -138t-153.5 -44q-34 0 -66.5 10.5 t-57.5 30.5t-40.5 49.5t-15.5 68.5q0 9 1 18t3 19zM377 253q3 16 3 29q0 37 -20.5 54t-52.5 17q-35 0 -74 -17.5t-84 -39.5l-20 -102q-3 -14 -3 -27q0 -24 9 -41.5t23.5 -28.5t32 -16t35.5 -5q54 0 90 27.5t49 90.5z" glyph-name="six" unicode="6"/>
<glyph d="M163 0h-94l366 609h-229l-20 -103h-83l35 183h410l-15 -77z" glyph-name="seven" unicode="7"/>
<glyph d="M329 695q35 0 67.5 -10t58 -30.5t41 -51.5t15.5 -73q0 -63 -27 -110t-81 -70q35 -15 51.5 -49t16.5 -73q0 -60 -23 -104t-59.5 -73t-81.5 -43t-88 -14q-40 0 -74.5 10t-60 30t-40 50.5t-14.5 71.5q0 37 11 68.5t29 56t41.5 42.5t48.5 28q-28 17 -44.5 48t-16.5 67 q0 59 20.5 102t53 71.5t73.5 42t83 13.5zM327 615q-25 0 -50 -8t-44.5 -24.5t-32 -42t-12.5 -59.5q0 -44 27.5 -68.5t69.5 -24.5q25 0 50 9.5t45 26.5t32.5 40.5t12.5 52.5q0 48 -29 73t-69 25zM272 305q-28 0 -55 -10t-48 -28.5t-34 -45t-13 -58.5q0 -42 28.5 -64.5 t74.5 -22.5q27 0 54 9.5t48.5 27t34.5 43.5t13 59q0 42 -29 66t-74 24z" glyph-name="eight" unicode="8"/>
<glyph d="M441 177q-19 -97 -77.5 -139.5t-154.5 -42.5q-66 0 -111.5 20.5t-77.5 49.5l61 67q29 -26 59.5 -40t68.5 -14q24 0 48 6t43.5 20t34.5 36.5t21 55.5l22 116q-55 -26 -97 -40.5t-72 -14.5q-65 0 -100 35.5t-35 95.5q0 11 1.5 22.5t3.5 23.5l15 80q17 87 80 134.5t150 47.5 q35 0 68.5 -10t59.5 -29t42 -47t16 -64q0 -14 -3 -30zM167 442q-3 -15 -3 -28q0 -38 21 -55t53 -17q35 0 73.5 17.5t83.5 38.5l19 99q3 15 3 28q0 24 -9 41t-23 27.5t-31.5 15.5t-35.5 5q-48 0 -87.5 -27t-52.5 -90z" glyph-name="nine" unicode="9"/>
<glyph horiz-adv-x="250" d="M103 112q26 0 38.5 -14t12.5 -32q0 -29 -20.5 -50t-52.5 -21q-23 0 -35 12.5t-12 32.5q0 12 4.5 24.5t13 23t21.5 17.5t30 7zM162 415q26 0 38.5 -14t12.5 -32q0 -29 -21 -50t-53 -21q-23 0 -35 12t-12 32q0 12 4.5 25t13.5 23.5t22 17.5t30 7z" glyph-name="colon" unicode=":"/>
<glyph horiz-adv-x="250" d="M162 415q26 0 38.5 -14t12.5 -32q0 -29 -21 -50t-53 -21q-23 0 -35 12t-12 32q0 12 4.5 25t13.5 23.5t22 17.5t30 7zM101 110q31 0 42.5 -18t11.5 -41q0 -30 -13 -59t-33 -53.5t-44.5 -43t-47.5 -28.5l-23 39q26 17 44 37.5t26 50.5q-17 2 -26 14t-9 30q0 12 5 25 t14 23.5t22.5 17t30.5 6.5z" glyph-name="semicolon" unicode=";"/>
<glyph d="M422 63l-368 202l12 60l446 203l-14 -75l-357 -162l295 -161z" glyph-name="less" unicode="&lt;"/>
<glyph d="M58 357l13 67h441l-13 -67h-441zM21 165l13 67h441l-13 -67h-441z" glyph-name="equal" unicode="="/>
<glyph d="M48 137l357 161l-295 162l14 68l368 -203l-12 -60l-446 -202z" glyph-name="greater" unicode="&gt;"/>
<glyph horiz-adv-x="459" d="M308 700q36 0 66.5 -11t52 -30.5t33.5 -46.5t12 -60q0 -26 -8.5 -48.5t-22 -43t-31 -40t-35.5 -38.5q-34 -35 -63.5 -70t-37.5 -77l-9 -45h-86l9 42q7 31 20 58t29.5 50t35.5 44t37 40q29 30 49 58t20 59q0 37 -24 58t-66 21q-38 0 -77 -14.5t-69 -36.5l-32 70 q50 33 97.5 47t99.5 14zM209 112q26 0 38.5 -14t12.5 -32q0 -29 -20.5 -50t-52.5 -21q-23 0 -35 12.5t-12 32.5q0 12 4.5 24.5t13 23t21.5 17.5t30 7z" glyph-name="question" unicode="?"/>
<glyph horiz-adv-x="832" d="M449 567q21 0 48 -10.5t72 -36.5l19 42h57l-55 -283q-1 -4 -1 -8v-9q0 -21 11.5 -37.5t43.5 -16.5q22 0 44.5 13.5t41.5 41t31 68.5t12 95q0 51 -18.5 95.5t-53 76.5t-83.5 50.5t-109 18.5q-84 0 -153.5 -29t-118.5 -78.5t-76 -115.5t-27 -140q0 -56 15.5 -102t47 -79 t80 -51.5t114.5 -18.5q29 0 61.5 6t71.5 21l15 -61q-44 -17 -83 -22.5t-77 -5.5q-73 0 -130.5 22.5t-97.5 63.5t-61 97.5t-21 124.5q0 89 31 166.5t89 135.5t139.5 91t182.5 33q78 0 138.5 -22.5t102 -61.5t63.5 -92.5t22 -115.5q0 -68 -16 -121t-43.5 -89.5t-65.5 -55.5 t-82 -19q-16 0 -32.5 4t-31 11.5t-25.5 19.5t-15 29q-35 -17 -74.5 -33t-73.5 -16q-50 0 -80.5 27t-30.5 78q0 8 1 17t3 19l21 121q12 68 51.5 105t105.5 37zM446 504q-32 0 -55 -20.5t-32 -66.5l-18 -105q-3 -15 -3 -27q0 -30 15.5 -43t39.5 -13q25 0 58 14t70 33l35 180 q-26 18 -57 33t-53 15z" glyph-name="at" unicode="@"/>
<glyph horiz-adv-x="597" d="M449 0l-24 155h-272l-82 -155h-98l370 689h92l107 -689h-93zM365 563l-80 -160l-86 -164h213l-23 164l-20 160h-4z" glyph-name="A" unicode="A"/>
<glyph horiz-adv-x="593" d="M427 689q46 0 79 -13.5t54.5 -37t31.5 -54t10 -63.5q0 -51 -27.5 -93.5t-89.5 -73.5q39 -22 52.5 -57.5t13.5 -75.5q0 -42 -15 -82t-44.5 -71t-71.5 -49.5t-96 -18.5h-307l134 689h276zM228 605l-41 -210h183q26 0 50.5 9t43.5 24.5t30.5 37t11.5 46.5q0 48 -29 70.5 t-74 22.5h-175zM171 311l-45 -228h180q31 0 58.5 8.5t48.5 25t33 41t12 55.5q0 48 -29.5 73t-73.5 25h-184z" glyph-name="B" unicode="B"/>
<glyph horiz-adv-x="534" d="M378 696q57 0 109.5 -17t90.5 -49l-59 -71q-11 11 -28.5 21t-37.5 17.5t-41.5 11.5t-40.5 4q-70 0 -114.5 -37.5t-61.5 -123.5l-43 -210q-2 -11 -3 -21.5t-1 -19.5q0 -32 11 -55t30 -38t44.5 -22.5t55.5 -7.5q39 0 85.5 13.5t82.5 39.5l38 -76q-18 -13 -42 -24 t-52.5 -19.5t-59 -13.5t-60.5 -5q-46 0 -87.5 13t-72.5 37.5t-49 60t-18 80.5q0 11 1.5 23t3.5 24l47 240q20 104 85 164.5t187 60.5z" glyph-name="C" unicode="C"/>
<glyph horiz-adv-x="605" d="M555 224q-11 -53 -28 -94.5t-45.5 -70.5t-71 -44t-102.5 -15h-290l134 689h246q46 0 84 -12t65 -35t42 -55.5t15 -74.5q0 -20 -5 -48zM505 448q2 12 3.5 22.5t1.5 20.5q0 31 -10.5 53t-28.5 35.5t-43 19.5t-55 6h-145l-102 -523h178q27 0 52.5 7.5t46.5 25.5t37 48t25 76 z" glyph-name="D" unicode="D"/>
<glyph horiz-adv-x="557" d="M21 0l134 689h450l-16 -84h-358l-42 -219h314l-16 -83h-315l-43 -220h388l-16 -83h-480z" glyph-name="E" unicode="E"/>
<glyph horiz-adv-x="535" d="M231 605l-42 -218h315l-17 -84h-315l-59 -303h-92l134 689h450l-16 -84h-358z" glyph-name="F" unicode="F"/>
<glyph horiz-adv-x="580" d="M500 77q-49 -47 -108 -65.5t-116 -18.5q-45 0 -84.5 13t-69.5 38.5t-47.5 62t-17.5 83.5q0 22 5 50l44 231q20 105 92.5 165t190.5 60q57 0 110 -15t86 -47l-56 -72q-23 22 -63.5 35.5t-79.5 13.5q-35 0 -66 -9t-56 -28t-43 -49t-26 -73l-42 -215q-2 -10 -3 -19t-1 -18 q0 -32 12 -55t30.5 -38t42.5 -22t48 -7q23 0 57.5 6.5t76.5 34.5l31 161h-110l16 83h201l-54 -286v0z" glyph-name="G" unicode="G"/>
<glyph horiz-adv-x="609" d="M429 0l60 307h-323l-60 -307h-92l134 689h92l-58 -298h323l58 298h94l-134 -689h-94z" glyph-name="H" unicode="H"/>
<glyph horiz-adv-x="252" d="M40 0l134 689h92l-134 -689h-92z" glyph-name="I" unicode="I"/>
<glyph horiz-adv-x="521" d="M443 222q-10 -53 -30 -95.5t-51 -72t-74 -45.5t-99 -16q-23 0 -51 3.5t-55.5 11t-51.5 18t-40 24.5l50 69q16 -12 36 -19.5t41 -12.5t41 -7t35 -2q30 0 55.5 8t46 27t35.5 50.5t24 78.5l87 447h92l-91 -467v0z" glyph-name="J" unicode="J"/>
<glyph horiz-adv-x="590" d="M446 0l-135 349l-164 -158l-37 -191h-93l134 689h92l-70 -364l369 364h111l-275 -272l164 -417h-96z" glyph-name="K" unicode="K"/>
<glyph horiz-adv-x="535" d="M26 0l134 689h92l-118 -606h368l-16 -83h-460z" glyph-name="L" unicode="L"/>
<glyph horiz-adv-x="742" d="M372 225l120 183l189 281h89l-131 -689h-92l91 469h-5l-88 -133l-161 -234h-68l-68 215l-44 152h-5l-90 -469h-91l131 689h83l84 -281l50 -183h6z" glyph-name="M" unicode="M"/>
<glyph horiz-adv-x="645" d="M481 161l100 528h91l-131 -689h-89l-169 372l-67 151h-7l-99 -523h-91l131 689h87l174 -385l63 -143h7z" glyph-name="N" unicode="N"/>
<glyph horiz-adv-x="610" d="M563 218q-20 -103 -89 -164t-191 -61q-46 0 -87 14t-72 40.5t-49.5 65t-18.5 88.5q0 27 6 56l42 214q20 104 86.5 164.5t188.5 60.5q51 0 93.5 -15.5t73 -43t47.5 -65t17 -81.5q0 -23 -4 -43zM514 440q2 10 3 19.5t1 17.5q0 33 -12 58t-32 42t-45.5 25.5t-53.5 8.5 q-72 0 -119 -37.5t-63 -121.5l-39 -204q-2 -12 -3 -22.5t-1 -21.5q0 -33 10.5 -56.5t28.5 -39t42 -23t51 -7.5q86 0 132 44.5t63 128.5z" glyph-name="O" unicode="O"/>
<glyph horiz-adv-x="554" d="M418 689q43 0 75.5 -15.5t54 -41t32 -58t10.5 -67.5q0 -40 -16 -81t-45.5 -74t-72 -54t-95.5 -21h-201l-54 -277h-92l134 689h270zM224 605l-47 -243h174q29 0 56 10t47.5 28.5t32.5 44t12 55.5q0 49 -29 77t-79 28h-167z" glyph-name="P" unicode="P"/>
<glyph horiz-adv-x="628" d="M563 218q-10 -51 -31.5 -92t-55 -70t-80 -45.5t-105.5 -17.5l-3 -16q-2 -12 -3.5 -21.5t-1.5 -17.5q0 -26 18 -33t65 -7l-14 -73q-21 -3 -38 -3q-62 0 -90.5 26t-28.5 70q0 14 3 31l11 53q-33 9 -61 26.5t-48.5 43t-32 58t-11.5 71.5q0 26 6 56l42 214q20 104 86.5 164.5 t188.5 60.5q51 0 93.5 -15.5t73 -43t47.5 -65t17 -81.5q0 -23 -4 -43zM514 440q2 10 3 19.5t1 17.5q0 33 -12 58t-32 42t-45.5 25.5t-53.5 8.5q-76 0 -121 -37.5t-61 -121.5l-39 -204q-2 -14 -3.5 -25.5t-1.5 -22.5q0 -64 36.5 -93t96.5 -29q46 0 79 11.5t56 33.5t37.5 54 t22.5 74z" glyph-name="Q" unicode="Q"/>
<glyph horiz-adv-x="572" d="M433 689q42 0 72.5 -14.5t51 -39t30 -56t9.5 -64.5q0 -32 -9 -64.5t-28.5 -61.5t-50.5 -54t-74 -41l72 -294h-101l-60 277h-182l-54 -277h-92l134 689h282zM227 605l-47 -243h174q30 0 57 10t47 29t32 45t12 59q0 47 -26 73.5t-75 26.5h-174z" glyph-name="R" unicode="R"/>
<glyph horiz-adv-x="556" d="M356 702q58 0 112.5 -15.5t95.5 -43.5l-49 -73q-33 23 -76.5 35.5t-89.5 12.5q-24 0 -51 -8t-49.5 -24t-37.5 -40t-15 -57q0 -26 14 -43t32.5 -27.5t38 -15.5t31.5 -8q42 -9 81 -20.5t69.5 -30.5t49 -50t18.5 -79q0 -52 -23 -93t-62 -69.5t-90 -43.5t-107 -15 q-73 0 -133 22.5t-104 65.5q14 15 27.5 31.5t27.5 31.5q35 -31 83 -49t105 -18q37 0 69 9.5t56 26.5t38 42t14 56q0 25 -13 42t-32 28t-41 17t-40 9q-37 7 -73.5 18t-65 30.5t-46 49.5t-17.5 74q0 48 18 88.5t51 70.5t79.5 46.5t104.5 16.5z" glyph-name="S" unicode="S"/>
<glyph horiz-adv-x="522" d="M385 604l-117 -604h-93l117 604h-198l16 85h490l-16 -85h-199z" glyph-name="T" unicode="T"/>
<glyph horiz-adv-x="610" d="M563 218q-11 -53 -36 -95t-62.5 -71t-85.5 -44t-104 -15q-44 0 -84 12t-70.5 36t-48.5 60.5t-18 84.5q0 13 1 26t4 27l87 450h93l-88 -454q-2 -10 -3 -19t-1 -17q0 -33 12 -56t31.5 -37.5t43.5 -21.5t47 -7q34 0 65 9t57 28t44.5 49t26.5 72l88 454h93l-92 -471v0z" glyph-name="U" unicode="U"/>
<glyph horiz-adv-x="565" d="M267 142l115 236l157 311h102l-352 -689h-99l-88 689h98l39 -323l22 -224h6z" glyph-name="V" unicode="V"/>
<glyph horiz-adv-x="862" d="M484 524l-93 -216l-138 -308h-103l-48 689h96l17 -317l9 -228h5l99 229l139 316h101l19 -326l10 -219h5l95 222l141 323h97l-312 -689h-103l-21 312l-9 212h-6z" glyph-name="W" unicode="W"/>
<glyph horiz-adv-x="550" d="M394 0l-105 278l-211 -278h-109l279 353l-133 336h103l94 -260l194 260h109l-263 -336l145 -353h-103z" glyph-name="X" unicode="X"/>
<glyph horiz-adv-x="537" d="M292 361l107 164l109 164h103l-288 -424l-51 -265h-92l51 264l-127 425h96l51 -191l36 -137h5z" glyph-name="Y" unicode="Y"/>
<glyph horiz-adv-x="523" d="M566 610l-445 -527h342l-16 -83h-450l16 81l442 524h-326l16 84h436z" glyph-name="Z" unicode="Z"/>
<glyph horiz-adv-x="256" d="M11 -105l156 803h166l-11 -56h-92l-134 -691h92l-11 -56h-166z" glyph-name="bracketleft" unicode="["/>
<glyph horiz-adv-x="317" d="M99 725h65l102 -767h-65z" glyph-name="backslash" unicode="\"/>
<glyph horiz-adv-x="256" d="M-34 -105l11 56h91l134 691h-91l11 56h165l-156 -803h-165z" glyph-name="bracketright" unicode="]"/>
<glyph d="M46 328l274 367h60l131 -367h-68l-105 293l-218 -293h-74z" glyph-name="asciicircum" unicode="^"/>
<glyph horiz-adv-x="490" d="M-65 -129l12 60h490l-12 -60h-490z" glyph-name="underscore" unicode="_"/>
<glyph horiz-adv-x="491" d="M356 554l-147 163l68 30l117 -170z" glyph-name="grave" unicode="`"/>
<glyph horiz-adv-x="501" d="M338 0v50q-35 -16 -60.5 -26.5t-45 -17t-34.5 -9t-28 -2.5q-63 0 -100 34.5t-37 97.5q0 11 1.5 22t3.5 23l30 152q17 85 63 131t131 46q13 0 28 -1.5t33.5 -7t41 -15.5t50.5 -26l20 44h75l-97 -495h-75zM398 370q-29 23 -64.5 36t-72.5 13q-40 0 -69 -24t-40 -81 l-26 -131q-2 -10 -3 -18.5t-1 -16.5q0 -37 19.5 -53t50.5 -16t74 17.5t89 40.5z" glyph-name="a" unicode="a"/>
<glyph horiz-adv-x="501" d="M451 184q-20 -101 -77 -145t-149 -44q-16 0 -40.5 3t-53.5 10t-59 17.5t-56 25.5l129 665h86l-52 -272q61 34 101 45.5t66 11.5q69 0 103 -32.5t34 -93.5q0 -12 -1 -24.5t-4 -26.5zM391 315q3 18 3 32q0 40 -20.5 56t-50.5 16q-31 0 -74 -17t-87 -44l-50 -255 q33 -17 63.5 -24t59.5 -7q55 0 87.5 30.5t43.5 87.5z" glyph-name="b" unicode="b"/>
<glyph horiz-adv-x="426" d="M281 501q43 0 88 -14t72 -51l-54 -60q-23 28 -52.5 37t-51.5 9q-49 0 -84 -27.5t-47 -90.5l-22 -112q-3 -15 -3 -28q0 -24 9 -41t23 -27.5t32 -15.5t36 -5q23 0 54.5 9t59.5 32l49 -65q-38 -32 -84 -44t-89 -12q-34 0 -65.5 9.5t-56 28.5t-39.5 48t-15 69q0 22 4 41 l25 133q16 85 69.5 131t141.5 46z" glyph-name="c" unicode="c"/>
<glyph horiz-adv-x="501" d="M339 0v52q-62 -36 -101.5 -46.5t-66.5 -10.5q-63 0 -99.5 33t-36.5 97q0 11 1.5 22.5t3.5 24.5l29 152q8 42 28.5 75t48.5 55.5t62 34.5t70 12q27 0 62 -6t81 -22l47 243h85l-139 -716h-75zM405 389q-37 14 -70.5 22.5t-64.5 8.5q-39 0 -72.5 -24t-44.5 -82l-26 -137 q-3 -18 -3 -31q0 -37 19 -53t52 -16q29 0 74 15.5t87 42.5z" glyph-name="d" unicode="d"/>
<glyph horiz-adv-x="470" d="M285 501q75 0 121 -36t46 -99q0 -31 -11 -61.5t-42.5 -54.5t-87.5 -38.5t-145 -14.5h-21t-22 1q-5 -20 -5 -36q0 -39 25.5 -64.5t76.5 -25.5q29 0 58 11t52 36l58 -62q-37 -34 -80.5 -48.5t-91.5 -14.5q-87 0 -134 44t-47 119q0 34 7.5 80t20.5 90q23 82 78.5 128 t143.5 46zM280 423q-64 0 -98 -40t-48 -110q12 -1 23 -1h22q60 0 96 8t55.5 20.5t26 27.5t6.5 29q0 32 -20 49t-63 17z" glyph-name="e" unicode="e"/>
<glyph horiz-adv-x="311" d="M122 -48q-7 -36 -16.5 -65t-27.5 -49.5t-46 -31.5t-73 -11q-14 0 -30.5 1t-35.5 4l15 78q9 -1 17 -1.5t16 -0.5q49 0 69 22t28 66l90 458h-64l15 75h64l14 73q7 35 17.5 64t29 50t47.5 33t72 12q35 0 73 -7l-15 -78q-11 2 -21.5 2h-19.5q-28 0 -45.5 -5.5t-28 -16.5 t-16 -27.5t-9.5 -38.5l-12 -61h116l-15 -75h-116z" glyph-name="f" unicode="f"/>
<glyph horiz-adv-x="499" d="M406 -30q-17 -86 -74 -131.5t-160 -45.5q-22 0 -46.5 4t-48.5 12t-44.5 20.5t-34.5 30.5l62 57q19 -23 53.5 -34.5t62.5 -11.5q24 0 47.5 5t43 18.5t34.5 36.5t22 58l13 63q-32 -20 -57 -31t-45 -17t-36 -7.5t-29 -1.5q-68 0 -102.5 33t-34.5 93q0 12 1.5 24.5t3.5 26.5 l27 140q20 101 75 145t147 44q16 0 41.5 -3t54.5 -10t60 -17.5t57 -25.5zM124 181q-3 -18 -3 -32q0 -40 20.5 -56t50.5 -16q31 0 74 15t87 46l50 255q-33 17 -63.5 24t-59.5 7q-55 0 -87.5 -30.5t-43.5 -87.5z" glyph-name="g" unicode="g"/>
<glyph horiz-adv-x="497" d="M347 501q63 0 100 -34t37 -97q0 -11 -1.5 -22.5t-3.5 -23.5l-63 -324h-86l61 313q2 10 3 18.5t1 16.5q0 38 -20 53.5t-52 15.5q-31 0 -74 -15.5t-87 -45.5l-69 -356h-86l141 716h85l-54 -272q33 19 58.5 30.5t45.5 17.5t35.5 7.5t28.5 1.5z" glyph-name="h" unicode="h"/>
<glyph horiz-adv-x="248" d="M218 497l-67 -348q-2 -11 -3 -19t-1 -15q0 -25 10 -31t38 -12l-16 -76h-11q-57 0 -84.5 21.5t-27.5 71.5q0 9 2.5 21t4.5 23l70 364h85zM254 646q-5 -21 -22.5 -36t-38.5 -15q-17 0 -29 12t-12 29q0 24 18.5 42t41.5 18q19 0 31 -11.5t12 -29.5q0 -6 -1 -9z" glyph-name="i" unicode="i"/>
<glyph horiz-adv-x="243" d="M140 497h84l-106 -550q-7 -35 -16 -64t-25 -50t-41.5 -32.5t-64.5 -11.5q-28 0 -62 6l15 78q27 -3 45.5 0t31.5 13.5t21 28t13 44.5zM216 696q19 0 31 -11.5t12 -29.5q0 -24 -19.5 -42t-42.5 -18q-17 0 -29 12t-12 29q0 24 18.5 42t41.5 18z" glyph-name="j" unicode="j"/>
<glyph horiz-adv-x="480" d="M26 0l138 716h83l-76 -390h73q15 0 30 2.5t29 9.5t27 19.5t24 32.5l60 107h95l-69 -125q-17 -29 -35.5 -53t-53.5 -33q19 -7 30.5 -17.5t17.5 -23t8.5 -28t4.5 -31.5l25 -186h-89l-20 159q-7 51 -25 67.5t-57 16.5h-91l-47 -243h-82z" glyph-name="k" unicode="k"/>
<glyph horiz-adv-x="242" d="M157 -4q-60 0 -87 22t-27 65q0 19 4 38l114 595h83l-110 -584q-3 -12 -3 -21q0 -23 14.5 -29t52.5 -8l-12 -78h-29z" glyph-name="l" unicode="l"/>
<glyph horiz-adv-x="757" d="M590 0l62 316q3 15 3 29q0 35 -19 54t-51 19q-25 0 -58.5 -10t-75.5 -39q0 -10 -2.5 -29.5t-4.5 -28.5l-60 -311h-85l61 313q4 16 4 34q0 69 -65 69q-22 0 -56.5 -14.5t-83.5 -49.5l-68 -352h-86l96 496h76v-53q31 21 52.5 32.5t38 17.5t29 7t25.5 1q43 0 68.5 -13.5 t44.5 -45.5q57 35 97.5 47t72.5 12q65 0 102 -36.5t37 -96.5q0 -22 -4 -41l-63 -327h-87z" glyph-name="m" unicode="m"/>
<glyph horiz-adv-x="497" d="M347 501q63 0 100 -34t37 -97q0 -11 -1.5 -22.5t-3.5 -23.5l-63 -324h-86l61 313q2 10 3 18.5t1 16.5q0 38 -20 53.5t-52 15.5q-31 0 -72.5 -15.5t-88.5 -45.5l-69 -356h-86l97 496h75v-52q37 21 63 32.5t45 17t33 6.5t27 1z" glyph-name="n" unicode="n"/>
<glyph horiz-adv-x="505" d="M455 171q-11 -52 -32.5 -86t-51 -54t-65.5 -28t-76 -8q-34 0 -66.5 10.5t-58 32t-41 53.5t-15.5 75q0 11 1 22t3 23l20 106q17 86 68.5 135t149.5 49q45 0 80 -14t59.5 -38t37.5 -56t13 -68q0 -22 -4 -41zM393 282q4 16 4 34q0 50 -31 77.5t-79 27.5q-50 0 -84.5 -26 t-46.5 -91l-18 -98q-3 -18 -3 -33q0 -27 9 -46t23.5 -30.5t32.5 -17t36 -5.5q21 0 42 4t40 17t33.5 36t22.5 61z" glyph-name="o" unicode="o"/>
<glyph horiz-adv-x="496" d="M178 495v-52q64 35 102.5 46t65.5 11q63 0 100 -30t37 -96q0 -12 -1 -24.5t-4 -26.5l-30 -152q-17 -85 -65 -131t-143 -46q-27 0 -60 5.5t-83 25.5l-43 -223h-84l133 693h75zM113 106q44 -20 74 -25.5t61 -5.5q20 0 38.5 4.5t33.5 16t26 31t17 48.5l28 142q2 10 3 18.5 t1 16.5q0 37 -20 51t-53 14q-29 0 -73.5 -17t-86.5 -41z" glyph-name="p" unicode="p"/>
<glyph horiz-adv-x="496" d="M68 312q19 100 72.5 144.5t153.5 44.5q16 0 40.5 -3t53.5 -10t59 -17.5t56 -25.5l-125 -643h-86l48 250q-33 -20 -58 -31.5t-45 -17t-35.5 -7t-28.5 -1.5q-68 0 -102.5 33t-34.5 93q0 12 1.5 24.5t3.5 26.5zM128 181q-3 -18 -3 -32q0 -40 20.5 -56t50.5 -16q31 0 75 16 t86 45l50 255q-33 17 -63.5 24t-59.5 7q-55 0 -87.5 -30.5t-43.5 -87.5z" glyph-name="q" unicode="q"/>
<glyph horiz-adv-x="319" d="M359 407q-69 -11 -114.5 -24.5t-71.5 -28.5l-68 -354h-86l96 496h73l-2 -70h1q32 28 81 50t101 26z" glyph-name="r" unicode="r"/>
<glyph horiz-adv-x="454" d="M274 501q56 0 98.5 -11.5t77.5 -40.5l-49 -64q-30 22 -61.5 31t-69.5 9q-51 0 -81 -22.5t-30 -54.5q0 -14 8 -23.5t20.5 -16.5t28.5 -11t31 -7q23 -4 52 -11t54 -21t42 -37t17 -60q0 -41 -16.5 -72.5t-45.5 -52.5t-68 -31.5t-84 -10.5q-52 0 -101.5 14t-91.5 52l53 62 q32 -31 68.5 -42.5t82.5 -11.5q19 0 39.5 4.5t38 14.5t28.5 26t11 39q0 27 -18 39.5t-50 19.5q-26 6 -57.5 12t-60 19t-47.5 35.5t-19 61.5q0 40 18 70.5t46.5 51t64 30.5t71.5 10z" glyph-name="s" unicode="s"/>
<glyph horiz-adv-x="355" d="M319 10q-31 -10 -63 -12.5t-47 -2.5q-69 0 -96.5 30t-27.5 80q0 24 6 53l52 261h-71l15 77h72l42 115h63l-22 -115h129l-15 -77h-129l-47 -242q-4 -20 -4 -42q0 -25 11.5 -40.5t45.5 -15.5q16 0 36.5 2.5t45.5 5.5z" glyph-name="t" unicode="t"/>
<glyph horiz-adv-x="501" d="M343 0l-2 52q-31 -20 -56 -31t-45.5 -17t-37 -7.5t-29.5 -1.5q-63 0 -100.5 34.5t-37.5 97.5q0 11 1.5 22t3.5 23l64 324h86l-61 -313q-2 -10 -3 -18.5t-1 -16.5q0 -37 19.5 -53t50.5 -16q30 0 74.5 18t89.5 48l69 351h85l-96 -496h-74z" glyph-name="u" unicode="u"/>
<glyph horiz-adv-x="461" d="M343 353q22 40 33 66t11 58v20h84v-19q0 -45 -12 -76.5t-34 -68.5l-197 -333h-79l-84 495h91l28 -209l23 -174h4z" glyph-name="v" unicode="v"/>
<glyph horiz-adv-x="702" d="M493 0h-73l-25 197l-18 146h-4l-71 -146l-97 -197h-77l-63 496h88l19 -197l15 -164h6l82 164l75 149h87l22 -155l21 -158h5l108 218q20 42 27.5 69t7.5 55v20h84v-19q0 -39 -8.5 -73t-28.5 -72z" glyph-name="w" unicode="w"/>
<glyph horiz-adv-x="434" d="M286 0l-74 186l-143 -186h-110l215 254l-109 242h97l68 -173l138 173h106l-206 -240l117 -256h-99z" glyph-name="x" unicode="x"/>
<glyph horiz-adv-x="447" d="M328 353q22 41 32 66.5t10 57.5v20h87v-19q0 -45 -12.5 -76.5t-33.5 -68.5l-293 -534h-91l111 210l-35 35l-48 452h88l17 -204l17 -216h3z" glyph-name="y" unicode="y"/>
<glyph horiz-adv-x="450" d="M1 0l13 70l329 349h-246l14 76h356l-13 -70l-328 -347h260l-15 -78h-370z" glyph-name="z" unicode="z"/>
<glyph horiz-adv-x="256" d="M131 -103q-33 0 -57 22.5t-24 60.5v12t2 12l27 139q2 13 3.5 24t1.5 22q0 35 -14 57t-43 25l10 51q20 3 37 14.5t30 29t21.5 40t13.5 46.5l26 136q10 49 42 78.5t70 29.5h66l-10 -54h-40q-14 0 -24 -8t-17.5 -20.5t-12.5 -28t-8 -30.5l-25 -125q-6 -32 -19 -55.5 t-28 -39.5t-29 -24.5t-23 -11.5v-3q6 -2 15 -9t17 -18.5t14 -28.5t6 -39q0 -8 -1 -16.5t-3 -17.5l-25 -130q-2 -9 -3 -18.5t-1 -19.5q0 -20 7 -34.5t25 -14.5h40l-10 -53h-57z" glyph-name="braceleft" unicode="{"/>
<glyph horiz-adv-x="204" d="M70 -162v878h65v-878h-65z" glyph-name="bar" unicode="|"/>
<glyph horiz-adv-x="256" d="M257 271q-40 -5 -65 -40t-36 -88l-27 -139q-9 -49 -40.5 -78t-70.5 -29h-67l10 53h41q13 0 23.5 8t18 20.5t12.5 28t8 30.5l25 130q6 31 19 54t28 39t29.5 24.5t22.5 11.5l1 3q-7 2 -16 8.5t-17 18t-13.5 28t-5.5 39.5q0 20 4 37l24 125q2 12 4.5 24.5t2.5 23.5 q0 17 -7.5 28t-27.5 11h-41l9 50h65q39 0 57.5 -20.5t18.5 -54.5q0 -14 -3 -29l-27 -136q-4 -20 -4 -43q0 -34 13 -58.5t42 -28.5l-10 -51v0z" glyph-name="braceright" unicode="}"/>
<glyph d="M498 312q-35 -45 -69 -66.5t-79 -21.5q-20 0 -40.5 9.5t-42 21.5t-43 21.5t-41.5 9.5q-26 0 -45.5 -12.5t-43.5 -38.5l-45 39q36 46 73.5 65t75.5 19q23 0 44.5 -9.5t42.5 -21t41 -21t41 -9.5q24 0 43.5 13.5t44.5 40.5l43 -39v0z" glyph-name="asciitilde" unicode="~"/>
<glyph horiz-adv-x="237" d="M108 307h75l-92 -507h-89zM162 384q-26 0 -38.5 14t-12.5 32q0 29 20.5 50t52.5 21q23 0 35 -12.5t12 -32.5q0 -12 -4.5 -25t-13 -23.5t-21.5 -17t-30 -6.5z" glyph-name="exclamdown" unicode="¡"/>
<glyph horiz-adv-x="422" d="M152 -117l22 116q-27 5 -51 16.5t-42.5 30.5t-29 44.5t-10.5 58.5q0 22 4 42l25 133q15 81 63.5 127.5t137.5 48.5l20 101h45l-20 -102q37 -4 72 -18t58 -45l-59 -60q-20 23 -43 33t-43 12l-67 -346q23 1 52 10.5t55 30.5l49 -65q-38 -32 -83.5 -44t-88.5 -12l-21 -112 h-45zM130 192q-3 -15 -3 -28q0 -36 18.5 -56t44.5 -28l66 339q-44 -5 -68.5 -33t-35.5 -82z" glyph-name="cent" unicode="¢"/>
<glyph d="M240 294q-14 -61 -37.5 -115.5t-65.5 -102.5h300l-14 -76h-406l13 64q46 49 81 106.5t50 123.5h-93l13 65h79q-2 32 -8.5 63.5t-6.5 64.5q0 43 12.5 81.5t37.5 67.5t62 46.5t85 17.5q65 0 112 -24.5t75 -81.5l-72 -38q-17 29 -44.5 48t-71.5 19q-30 0 -50.5 -12.5 t-33 -32.5t-18 -44.5t-5.5 -48.5q0 -32 6.5 -63t6.5 -63h150l-14 -65h-143z" glyph-name="sterling" unicode="£"/>
<glyph horiz-adv-x="556" d="M40 505q13 14 24.5 25t24.5 24l68 -68q29 19 58 28.5t61 9.5t61 -9.5t58 -28.5l67 68l49 -50l-68 -67q38 -58 38 -118q0 -59 -38 -118q16 -15 34 -32t34 -34l-49 -50l-67 68q-56 -39 -119 -39q-64 0 -119 39l-68 -68q-10 11 -25 25.5t-24 23.5l69 67q-38 59 -38 118 q0 60 38 118zM142 319q0 -27 10.5 -51.5t28.5 -42.5t42 -28.5t52 -10.5t52.5 10.5t42.5 28.5t28.5 42.5t10.5 51.5q0 28 -10.5 52.5t-28.5 42.5t-42.5 28.5t-52.5 10.5t-52 -10.5t-42 -28.5t-28.5 -42.5t-10.5 -52.5z" glyph-name="currency" unicode="¤"/>
<glyph d="M47 215h160l9 49l-7 33h-146l12 61h118l-84 331h97l70 -319h7l194 319h104l-212 -331h117l-12 -61h-144l-20 -32l-10 -50h158l-11 -57h-158l-30 -158h-93l30 158h-160z" glyph-name="yen" unicode="¥"/>
<glyph horiz-adv-x="204" d="M70 304v412h65v-412h-65zM135 246v-408h-65v408h65z" glyph-name="brokenbar" unicode="¦"/>
<glyph horiz-adv-x="444" d="M323 705q16 0 34.5 -2t36 -6t33 -10t26.5 -13l-36 -64q-18 13 -40 20.5t-51 7.5q-16 0 -33.5 -5t-32 -15t-24 -25t-9.5 -34q0 -35 38 -61q31 -21 59 -36t49.5 -32t34 -39.5t12.5 -57.5q0 -46 -22.5 -80.5t-61.5 -66.5q8 -11 15.5 -31t7.5 -45q0 -42 -17.5 -73t-44.5 -52 t-61 -31.5t-67 -10.5q-38 0 -77 11t-64 27l32 60q20 -14 46.5 -22.5t61.5 -8.5q19 0 39 6t36 17.5t26 29t10 40.5q0 25 -19 45t-67 43q-23 11 -44 23.5t-37 28t-25.5 35t-9.5 45.5q0 34 20.5 76t72.5 78q-10 13 -17.5 31t-7.5 39q0 34 14 63t38 50t56.5 33t69.5 12zM213 437 q-29 -18 -45.5 -43.5t-16.5 -49.5t14.5 -38.5t35.5 -25.5t43.5 -21t38.5 -24q28 14 43 37.5t15 45.5q0 21 -13 38t-32.5 32t-42 27t-40.5 22z" glyph-name="section" unicode="§"/>
<glyph horiz-adv-x="489" d="M471 639q-5 -20 -22 -34.5t-37 -14.5q-17 0 -28 11t-11 28q0 23 18 40.5t40 17.5q18 0 29.5 -11t11.5 -28q0 -6 -1 -9zM275 639q-5 -20 -21.5 -34.5t-36.5 -14.5q-17 0 -28.5 11t-11.5 28q0 23 18 40.5t41 17.5q18 0 29 -11t11 -28q0 -6 -1 -9z" glyph-name="dieresis" unicode="¨"/>
<glyph horiz-adv-x="829" d="M773 347q0 -80 -28.5 -148t-77.5 -118.5t-113.5 -79t-137.5 -28.5t-138.5 28.5t-114.5 79t-77.5 118.5t-28.5 148q0 79 28.5 147t77.5 118t114.5 78t138.5 28t137.5 -28t113.5 -78t77.5 -118t28.5 -147zM710 347q0 65 -22.5 122t-62.5 99.5t-93.5 67t-115.5 24.5 t-116.5 -24.5t-94.5 -67t-63 -99.5t-23 -122q0 -66 23 -124t63 -100.5t94.5 -67t116.5 -24.5t115.5 24.5t93.5 67t62.5 100.5t22.5 124zM523 474q-22 19 -46.5 26t-45.5 7q-17 0 -35.5 -5t-33.5 -17t-24.5 -31t-9.5 -46v-134q0 -27 9.5 -46t24.5 -31t33.5 -17.5t35.5 -5.5 q20 0 44.5 6.5t44.5 22.5l31 -48q-26 -20 -57.5 -29t-63.5 -9q-31 0 -60.5 9t-53 26.5t-37.5 43.5t-14 60v168q0 33 14.5 59t38 44t53 27.5t59.5 9.5q34 0 67 -10t59 -31z" glyph-name="copyright" unicode="©"/>
<glyph horiz-adv-x="346" d="M272 277v34q-44 -19 -67.5 -28t-42.5 -9q-25 0 -45 8.5t-33 24t-18 37.5t0 49l19 98q10 55 42 85.5t92 30.5q17 0 41 -5.5t61 -25.5l13 27h59l-62 -326h-59zM308 517q-20 14 -42.5 21.5t-46.5 7.5q-25 0 -43.5 -16t-25.5 -48l-17 -84q-7 -35 7 -49t38 -14q18 0 47 11.5 t58 25.5z" glyph-name="ordfeminine" unicode="ª"/>
<glyph horiz-adv-x="459" d="M297 418l-167 -192l87 -180h-73l-91 186l164 186h80zM463 418l-167 -192l87 -180h-73l-91 186l164 186h80z" glyph-name="guillemotleft" unicode="«"/>
<glyph d="M442 70h-77l37 192h-363l13 64h441z" glyph-name="logicalnot" unicode="¬"/>
<glyph horiz-adv-x="384" d="M56 230l15 75h288l-15 -75h-288z" glyph-name="sfthyphen" unicode="­"/>
<glyph horiz-adv-x="509" d="M427 514q0 -39 -14 -73t-38.5 -59t-57 -39.5t-68.5 -14.5t-68.5 14.5t-56.5 39.5t-38.5 59t-14.5 73t14.5 73t38.5 58.5t56.5 38.5t68.5 14t68.5 -14t57 -38.5t38.5 -58.5t14 -73zM390 514q0 31 -11 58t-30 47.5t-44.5 32t-55.5 11.5q-29 0 -55 -11.5t-45 -32t-30 -47.5 t-11 -58q0 -32 11 -59.5t30 -48t45 -32t55 -11.5q30 0 55.5 11.5t44.5 32t30 48t11 59.5zM293 416l-37 81h-34v-81h-37v198h78q26 0 44 -15.5t18 -41.5q0 -35 -36 -54l43 -87h-39zM289 557q0 12 -7.5 17.5t-18.5 5.5h-41v-49h39q12 0 20 7t8 19z" glyph-name="registered" unicode="®"/>
<glyph horiz-adv-x="495" d="M205 600l15 75h268l-15 -75h-268z" glyph-name="macron" unicode="¯"/>
<glyph horiz-adv-x="385" d="M326 568q0 -28 -10.5 -52.5t-28.5 -42.5t-42.5 -28.5t-52.5 -10.5t-52.5 10.5t-42.5 28.5t-28.5 42.5t-10.5 52.5t10.5 52.5t28.5 42.5t42.5 28.5t52.5 10.5q30 0 55 -10.5t42.5 -28.5t27 -42.5t9.5 -52.5zM272 568q0 33 -23 56.5t-57 23.5q-33 0 -56.5 -23.5 t-23.5 -56.5t22.5 -56.5t57.5 -23.5q34 0 57 23.5t23 56.5z" glyph-name="degree" unicode="°"/>
<glyph d="M302 291l-34 -174h-64l34 174h-184l13 64h184l33 174h64l-33 -174h183l-13 -64h-183zM-2 0l12 64h431l-12 -64h-431z" glyph-name="plusminus" unicode="±"/>
<glyph horiz-adv-x="326" d="M255 787q27 0 50.5 -4.5t41 -16t28 -30t10.5 -45.5q0 -26 -11.5 -48t-30 -40.5t-41.5 -34.5t-46 -30q-16 -9 -35 -21t-36 -25t-30.5 -27t-17.5 -29l-2 -7h206l-11 -62h-281l10 56q5 28 19 50.5t34 40.5t44 33.5t49 30.5q13 8 31.5 18.5t35 23t28 27t11.5 30.5 q0 24 -20.5 34.5t-46.5 10.5t-50 -9t-47 -24l-30 54q29 20 64.5 32t73.5 12z" glyph-name="twosuperior" unicode="²"/>
<glyph horiz-adv-x="325" d="M255 785q24 0 46 -5t39 -16.5t27 -30t10 -46.5q0 -17 -5.5 -34t-16.5 -32t-28 -26.5t-39 -16.5q35 -15 45.5 -37.5t10.5 -44.5q0 -32 -14 -57t-37.5 -42t-53 -26t-60.5 -9q-42 0 -78 12.5t-56 30.5l46 53q17 -15 43 -23t47 -8q18 0 34 4.5t29 13.5t20.5 22.5t7.5 30.5 q0 24 -16 37t-42 13h-53l12 63h54q10 0 23.5 3.5t25.5 11t20.5 19t8.5 27.5q0 27 -19 38.5t-46 11.5q-21 0 -48.5 -9t-51.5 -25l-30 54q35 23 69.5 33t75.5 10z" glyph-name="threesuperior" unicode="³"/>
<glyph horiz-adv-x="491" d="M309 571l107 177l76 -25l-134 -172z" glyph-name="acute" unicode="´"/>
<glyph horiz-adv-x="515" d="M422 57q-8 -45 -22.5 -79.5t-39.5 -58.5t-64 -37.5t-97 -16.5l2 70q46 5 74 17t43.5 29.5t22 40.5t11.5 50l117 634h73zM258 339q-74 0 -114.5 44t-40.5 116q0 49 17 87.5t46 65t68 40.5t83 14h91l-68 -367h-82z" glyph-name="paragraph" unicode="¶"/>
<glyph horiz-adv-x="226" d="M138 337q23 0 37.5 -15t14.5 -38q0 -14 -6.5 -27.5t-17.5 -24t-25 -16.5t-28 -6q-23 0 -37 15t-14 36q0 15 6.5 28.5t17 24t24.5 17t28 6.5z" glyph-name="periodcentered" unicode="·"/>
<glyph horiz-adv-x="431" d="M230 40l-37 -79q25 -2 42.5 -9t27.5 -17.5t14.5 -22.5t4.5 -24q0 -17 -7.5 -34.5t-22.5 -31.5t-38.5 -23t-55.5 -9h-16t-24.5 1.5t-28 5t-26.5 9.5l20 46q20 -9 41.5 -12t35.5 -3q19 0 38.5 10t19.5 32q0 20 -14 31t-40 11h-12l-17 16l51 107z" glyph-name="cedilla" unicode="¸"/>
<glyph horiz-adv-x="257" d="M120 367l64 327l-60 -38l-29 50l112 75h64l-80 -414h-71z" glyph-name="onesuperior" unicode="¹"/>
<glyph horiz-adv-x="347" d="M358 390q-11 -60 -51.5 -89t-98.5 -29q-32 0 -58.5 11t-44 30.5t-24.5 47.5t-1 61l12 63q11 57 49.5 89.5t100.5 32.5q36 0 62 -12t42.5 -32.5t23 -46.5t1.5 -53zM306 463q8 39 -11 62t-54 23q-30 0 -53.5 -16t-31.5 -56l-11 -64q-4 -21 0.5 -36t14.5 -25t23 -14.5 t26 -4.5q27 0 51 14.5t34 59.5z" glyph-name="ordmasculine" unicode="º"/>
<glyph horiz-adv-x="459" d="M179 46l167 192l-87 180h73l91 -186l-164 -186h-80zM13 46l167 192l-87 180h73l91 -186l-164 -186h-80z" glyph-name="guillemotright" unicode="»"/>
<glyph horiz-adv-x="800" d="M155 277l64 327l-60 -38l-29 50l112 75h64l-80 -414h-71zM151 -17h-66l567 730h67zM677 61l-12 -61h-73l12 61h-191l11 54l206 299h76l-201 -292h111l23 120h73l-23 -120h38l-12 -61h-38z" glyph-name="onequarter" unicode="¼"/>
<glyph horiz-adv-x="800" d="M133 277l64 327l-60 -38l-29 50l112 75h64l-80 -414h-71zM106 -17h-66l567 730h67zM634 420q27 0 50.5 -4.5t41 -16t28 -30t10.5 -45.5q0 -26 -11.5 -48t-30 -40.5t-41.5 -34.5t-46 -30q-16 -9 -35 -21t-36 -25t-30.5 -27t-17.5 -29l-2 -7h206l-11 -62h-281l10 56 q5 28 19 50.5t34 40.5t44 33.5t49 30.5q13 8 31.5 18.5t35 23t28 27t11.5 30.5q0 24 -20.5 34.5t-46.5 10.5t-50 -9t-47 -24l-30 54q29 20 64.5 32t73.5 12z" glyph-name="onehalf" unicode="½"/>
<glyph horiz-adv-x="800" d="M263 695q24 0 46 -5t39 -16.5t27 -30t10 -46.5q0 -17 -5.5 -34t-16.5 -32t-28 -26.5t-39 -16.5q35 -15 45.5 -37.5t10.5 -44.5q0 -32 -14 -57t-37.5 -42t-53 -26t-60.5 -9q-42 0 -78 12.5t-56 30.5l46 53q17 -15 43 -23t47 -8q18 0 34 4.5t29 13.5t20.5 22.5t7.5 30.5 q0 24 -16 37t-42 13h-53l12 63h54q10 0 23.5 3.5t25.5 11t20.5 19t8.5 27.5q0 27 -19 38.5t-46 11.5q-21 0 -48.5 -9t-51.5 -25l-30 54q35 23 69.5 33t75.5 10zM202 -17h-66l567 730h67zM699 61l-12 -61h-73l12 61h-191l11 54l206 299h76l-201 -292h111l23 120h73l-23 -120 h38l-12 -61h-38z" glyph-name="threequarters" unicode="¾"/>
<glyph horiz-adv-x="459" d="M204 -204q-36 0 -66.5 11t-52 30.5t-33.5 46.5t-12 60q0 32 13 60t33 53.5t44 49.5t46 48.5t39 50t23 55.5l9 45h86l-9 -42q-7 -37 -24 -68t-38.5 -57.5t-44 -50t-41.5 -45.5t-31 -43.5t-12 -44.5q0 -37 24 -58t66 -21q38 0 77 14.5t69 36.5l32 -70q-50 -33 -97.5 -47 t-99.5 -14zM303 384q-26 0 -38.5 14t-12.5 32q0 29 20.5 50t52.5 21q23 0 35 -12.5t12 -32.5q0 -12 -4.5 -25t-13 -23.5t-21.5 -17t-30 -6.5z" glyph-name="questiondown" unicode="¿"/>
<glyph horiz-adv-x="597" d="M449 0l-24 155h-272l-82 -155h-98l370 689h92l107 -689h-93zM365 563l-80 -160l-86 -164h213l-23 164l-20 160h-4zM402 738l-190 103l47 61l172 -122z" glyph-name="Agrave" unicode="À"/>
<glyph horiz-adv-x="597" d="M449 0l-24 155h-272l-82 -155h-98l370 689h92l107 -689h-93zM365 563l-80 -160l-86 -164h213l-23 164l-20 160h-4zM350 780l172 122l47 -61l-190 -103z" glyph-name="Aacute" unicode="Á"/>
<glyph horiz-adv-x="597" d="M449 0l-24 155h-272l-82 -155h-98l370 689h92l107 -689h-93zM365 563l-80 -160l-86 -164h213l-23 164l-20 160h-4zM416 828l-170 -89l-22 38l176 131h53l118 -129l-38 -37z" glyph-name="Acircumflex" unicode="Â"/>
<glyph horiz-adv-x="597" d="M449 0l-24 155h-272l-82 -155h-98l370 689h92l107 -689h-93zM365 563l-80 -160l-86 -164h213l-23 164l-20 160h-4zM349 859q18 0 34 -7t31 -15.5t29 -15.5t27 -7q14 0 31.5 10.5t37.5 34.5l45 -31q-28 -48 -58.5 -68.5t-61.5 -20.5q-18 0 -34 6.5t-31 14.5t-29.5 14.5 t-29.5 6.5q-17 0 -31.5 -8.5t-37.5 -31.5l-45 29q24 45 58.5 67t64.5 22z" glyph-name="Atilde" unicode="Ã"/>
<glyph horiz-adv-x="597" d="M449 0l-24 155h-272l-82 -155h-98l370 689h92l107 -689h-93zM365 563l-80 -160l-86 -164h213l-23 164l-20 160h-4zM559 793q-5 -20 -22 -34.5t-37 -14.5t-31.5 14.5t-6.5 34.5q4 20 20.5 34t36.5 14t32 -14t8 -34zM363 793q-5 -20 -21.5 -34.5t-36.5 -14.5t-32 14.5 t-7 34.5q4 20 21 34t37 14t31.5 -14t7.5 -34z" glyph-name="Adieresis" unicode="Ä"/>
<glyph horiz-adv-x="597" d="M449 0l-24 155h-272l-82 -155h-98l370 689h92l107 -689h-93zM365 563l-80 -160l-86 -164h213l-23 164l-20 160h-4zM397 709q-37 0 -61 23.5t-24 58.5q0 24 9 45.5t25 38t38 26t49 9.5q38 0 61.5 -24.5t23.5 -60.5q0 -27 -10.5 -48.5t-27.5 -36.5t-39 -23t-44 -8zM424 861 q-25 0 -43 -19t-18 -43q0 -18 11 -29.5t30 -11.5q24 0 44 18.5t20 43.5q0 17 -12.5 29t-31.5 12z" glyph-name="Aring" unicode="Å"/>
<glyph horiz-adv-x="956" d="M457 0l28 201h-251l-158 -201h-108l549 689h497l-11 -84h-368l-31 -219h314l-11 -83h-315l-32 -220h368l-11 -83h-460zM496 277l47 320l-251 -320h204z" glyph-name="AE" unicode="Æ"/>
<glyph horiz-adv-x="534" d="M378 696q57 0 109.5 -17t90.5 -49l-59 -71q-11 11 -28.5 21t-37.5 17.5t-41.5 11.5t-40.5 4q-70 0 -114.5 -37.5t-61.5 -123.5l-43 -210q-2 -11 -3 -21.5t-1 -19.5q0 -32 11 -55t30 -38t44.5 -22.5t55.5 -7.5q39 0 85.5 13.5t82.5 39.5l38 -76q-18 -13 -42 -24 t-52.5 -19.5t-59 -13.5t-60.5 -5h-5l-15 -32q25 -2 42.5 -9t27.5 -17.5t14.5 -22.5t4.5 -24q0 -17 -7.5 -34.5t-22.5 -31.5t-38.5 -23t-55.5 -9h-16t-24.5 1.5t-28 5t-26.5 9.5l20 46q20 -9 41.5 -12t35.5 -3q19 0 38.5 10t19.5 32q0 20 -14 31t-40 11h-12l-17 16l28 60 q-38 6 -70 21t-56 39t-37.5 56t-13.5 71q0 11 1.5 23t3.5 24l47 240q20 104 85 164.5t187 60.5z" glyph-name="Ccedilla" unicode="Ç"/>
<glyph horiz-adv-x="557" d="M21 0l134 689h450l-16 -84h-358l-42 -219h314l-16 -83h-315l-43 -220h388l-16 -83h-480zM422 738l-190 103l47 61l172 -122z" glyph-name="Egrave" unicode="È"/>
<glyph horiz-adv-x="557" d="M21 0l134 689h450l-16 -84h-358l-42 -219h314l-16 -83h-315l-43 -220h388l-16 -83h-480zM310 780l172 122l47 -61l-190 -103z" glyph-name="Eacute" unicode="É"/>
<glyph horiz-adv-x="557" d="M21 0l134 689h450l-16 -84h-358l-42 -219h314l-16 -83h-315l-43 -220h388l-16 -83h-480zM409 828l-170 -89l-22 38l176 131h53l118 -129l-38 -37z" glyph-name="Ecircumflex" unicode="Ê"/>
<glyph horiz-adv-x="557" d="M21 0l134 689h450l-16 -84h-358l-42 -219h314l-16 -83h-315l-43 -220h388l-16 -83h-480zM541 793q-5 -20 -22 -34.5t-37 -14.5t-31.5 14.5t-6.5 34.5q4 20 20.5 34t36.5 14t32 -14t8 -34zM345 793q-5 -20 -21.5 -34.5t-36.5 -14.5t-32 14.5t-7 34.5q4 20 21 34t37 14 t31.5 -14t7.5 -34z" glyph-name="Edieresis" unicode="Ë"/>
<glyph horiz-adv-x="252" d="M40 0l134 689h92l-134 -689h-92zM233 738l-190 103l47 61l172 -122z" glyph-name="Igrave" unicode="Ì"/>
<glyph horiz-adv-x="252" d="M40 0l134 689h92l-134 -689h-92zM197 780l172 122l47 -61l-190 -103z" glyph-name="Iacute" unicode="Í"/>
<glyph horiz-adv-x="252" d="M40 0l134 689h92l-134 -689h-92zM253 828l-170 -89l-22 38l176 131h53l118 -129l-38 -37z" glyph-name="Icircumflex" unicode="Î"/>
<glyph horiz-adv-x="252" d="M40 0l134 689h92l-134 -689h-92zM386 809q-5 -20 -22 -34.5t-37 -14.5q-17 0 -28 11t-11 28q0 23 18 40.5t40 17.5q18 0 29.5 -11t11.5 -28q0 -6 -1 -9zM190 809q-5 -20 -21.5 -34.5t-36.5 -14.5q-17 0 -28.5 11t-11.5 28q0 23 18 40.5t41 17.5q18 0 29 -11t11 -28 q0 -6 -1 -9z" glyph-name="Idieresis" unicode="Ï"/>
<glyph horiz-adv-x="605" d="M29 392h65l58 297h246q46 0 84 -12t65 -35t42 -55.5t15 -74.5q0 -20 -5 -48l-44 -240q-11 -53 -28 -94.5t-45.5 -70.5t-71 -44t-102.5 -15h-290l63 324h-65zM505 448q2 12 3.5 22.5t1.5 20.5q0 31 -10.5 53t-28.5 35.5t-43 19.5t-55 6h-145l-42 -213h109l-13 -68h-109 l-47 -242h178q27 0 52.5 7.5t46.5 25.5t37 48t25 76z" glyph-name="Eth" unicode="Ð"/>
<glyph horiz-adv-x="645" d="M481 161l100 528h91l-131 -689h-89l-169 372l-67 151h-7l-99 -523h-91l131 689h87l174 -385l63 -143h7zM364 859q18 0 34 -7t31 -15.5t29 -15.5t27 -7q14 0 31.5 10.5t37.5 34.5l45 -31q-28 -48 -58.5 -68.5t-61.5 -20.5q-18 0 -34 6.5t-31 14.5t-29.5 14.5t-29.5 6.5 q-17 0 -31.5 -8.5t-37.5 -31.5l-45 29q24 45 58.5 67t64.5 22z" glyph-name="Ntilde" unicode="Ñ"/>
<glyph horiz-adv-x="610" d="M563 218q-20 -103 -89 -164t-191 -61q-46 0 -87 14t-72 40.5t-49.5 65t-18.5 88.5q0 27 6 56l42 214q20 104 86.5 164.5t188.5 60.5q51 0 93.5 -15.5t73 -43t47.5 -65t17 -81.5q0 -23 -4 -43zM514 440q2 10 3 19.5t1 17.5q0 33 -12 58t-32 42t-45.5 25.5t-53.5 8.5 q-72 0 -119 -37.5t-63 -121.5l-39 -204q-2 -12 -3 -22.5t-1 -21.5q0 -33 10.5 -56.5t28.5 -39t42 -23t51 -7.5q86 0 132 44.5t63 128.5zM461 738l-190 103l47 61l172 -122z" glyph-name="Ograve" unicode="Ò"/>
<glyph horiz-adv-x="610" d="M563 218q-20 -103 -89 -164t-191 -61q-46 0 -87 14t-72 40.5t-49.5 65t-18.5 88.5q0 27 6 56l42 214q20 104 86.5 164.5t188.5 60.5q51 0 93.5 -15.5t73 -43t47.5 -65t17 -81.5q0 -23 -4 -43zM514 440q2 10 3 19.5t1 17.5q0 33 -12 58t-32 42t-45.5 25.5t-53.5 8.5 q-72 0 -119 -37.5t-63 -121.5l-39 -204q-2 -12 -3 -22.5t-1 -21.5q0 -33 10.5 -56.5t28.5 -39t42 -23t51 -7.5q86 0 132 44.5t63 128.5zM350 780l172 122l47 -61l-190 -103z" glyph-name="Oacute" unicode="Ó"/>
<glyph horiz-adv-x="610" d="M563 218q-20 -103 -89 -164t-191 -61q-46 0 -87 14t-72 40.5t-49.5 65t-18.5 88.5q0 27 6 56l42 214q20 104 86.5 164.5t188.5 60.5q51 0 93.5 -15.5t73 -43t47.5 -65t17 -81.5q0 -23 -4 -43zM514 440q2 10 3 19.5t1 17.5q0 33 -12 58t-32 42t-45.5 25.5t-53.5 8.5 q-72 0 -119 -37.5t-63 -121.5l-39 -204q-2 -12 -3 -22.5t-1 -21.5q0 -33 10.5 -56.5t28.5 -39t42 -23t51 -7.5q86 0 132 44.5t63 128.5zM427 828l-170 -89l-22 38l176 131h53l118 -129l-38 -37z" glyph-name="Ocircumflex" unicode="Ô"/>
<glyph horiz-adv-x="610" d="M563 218q-20 -103 -89 -164t-191 -61q-46 0 -87 14t-72 40.5t-49.5 65t-18.5 88.5q0 27 6 56l42 214q20 104 86.5 164.5t188.5 60.5q51 0 93.5 -15.5t73 -43t47.5 -65t17 -81.5q0 -23 -4 -43zM514 440q2 10 3 19.5t1 17.5q0 33 -12 58t-32 42t-45.5 25.5t-53.5 8.5 q-72 0 -119 -37.5t-63 -121.5l-39 -204q-2 -12 -3 -22.5t-1 -21.5q0 -33 10.5 -56.5t28.5 -39t42 -23t51 -7.5q86 0 132 44.5t63 128.5zM360 859q18 0 34 -7t31 -15.5t29 -15.5t27 -7q14 0 31.5 10.5t37.5 34.5l45 -31q-28 -48 -58.5 -68.5t-61.5 -20.5q-18 0 -34 6.5 t-31 14.5t-29.5 14.5t-29.5 6.5q-17 0 -31.5 -8.5t-37.5 -31.5l-45 29q24 45 58.5 67t64.5 22z" glyph-name="Otilde" unicode="Õ"/>
<glyph horiz-adv-x="610" d="M563 218q-20 -103 -89 -164t-191 -61q-46 0 -87 14t-72 40.5t-49.5 65t-18.5 88.5q0 27 6 56l42 214q20 104 86.5 164.5t188.5 60.5q51 0 93.5 -15.5t73 -43t47.5 -65t17 -81.5q0 -23 -4 -43zM514 440q2 10 3 19.5t1 17.5q0 33 -12 58t-32 42t-45.5 25.5t-53.5 8.5 q-72 0 -119 -37.5t-63 -121.5l-39 -204q-2 -12 -3 -22.5t-1 -21.5q0 -33 10.5 -56.5t28.5 -39t42 -23t51 -7.5q86 0 132 44.5t63 128.5zM566 793q-5 -20 -22 -34.5t-37 -14.5t-31.5 14.5t-6.5 34.5q4 20 20.5 34t36.5 14t32 -14t8 -34zM370 793q-5 -20 -21.5 -34.5 t-36.5 -14.5t-32 14.5t-7 34.5q4 20 21 34t37 14t31.5 -14t7.5 -34z" glyph-name="Odieresis" unicode="Ö"/>
<glyph horiz-adv-x="587" d="M345 235l134 -175l-51 -38l-134 174l-196 -159l-38 50l195 159l-127 166l51 38l128 -165l195 158l38 -50z" glyph-name="multiply" unicode="×"/>
<glyph horiz-adv-x="610" d="M563 218q-20 -103 -89 -164t-191 -61q-45 0 -85 13t-72 39l-38 -50l-31 29l39 51q-19 25 -29.5 56.5t-10.5 69.5q0 27 6 56l42 214q20 104 86.5 164.5t188.5 60.5q48 0 87.5 -13.5t69.5 -37.5l41 53l33 -29l-43 -55q20 -26 31.5 -57t11.5 -66q0 -23 -4 -43zM514 440 q2 10 3 19.5t1 17.5q0 16 -3.5 30.5t-8.5 26.5l-325 -418q19 -20 45 -29t56 -9q86 0 132 44.5t63 128.5zM150 204q0 -27 8 -49l321 417q-20 19 -47.5 29t-56.5 10q-72 0 -119 -37.5t-63 -121.5l-39 -204q-2 -12 -3 -22.5t-1 -21.5z" glyph-name="Oslash" unicode="Ø"/>
<glyph horiz-adv-x="610" d="M563 218q-11 -53 -36 -95t-62.5 -71t-85.5 -44t-104 -15q-44 0 -84 12t-70.5 36t-48.5 60.5t-18 84.5q0 13 1 26t4 27l87 450h93l-88 -454q-2 -10 -3 -19t-1 -17q0 -33 12 -56t31.5 -37.5t43.5 -21.5t47 -7q34 0 65 9t57 28t44.5 49t26.5 72l88 454h93zM435 738l-190 103 l47 61l172 -122z" glyph-name="Ugrave" unicode="Ù"/>
<glyph horiz-adv-x="610" d="M563 218q-11 -53 -36 -95t-62.5 -71t-85.5 -44t-104 -15q-44 0 -84 12t-70.5 36t-48.5 60.5t-18 84.5q0 13 1 26t4 27l87 450h93l-88 -454q-2 -10 -3 -19t-1 -17q0 -33 12 -56t31.5 -37.5t43.5 -21.5t47 -7q34 0 65 9t57 28t44.5 49t26.5 72l88 454h93zM340 780l172 122 l47 -61l-190 -103z" glyph-name="Uacute" unicode="Ú"/>
<glyph horiz-adv-x="610" d="M563 218q-11 -53 -36 -95t-62.5 -71t-85.5 -44t-104 -15q-44 0 -84 12t-70.5 36t-48.5 60.5t-18 84.5q0 13 1 26t4 27l87 450h93l-88 -454q-2 -10 -3 -19t-1 -17q0 -33 12 -56t31.5 -37.5t43.5 -21.5t47 -7q34 0 65 9t57 28t44.5 49t26.5 72l88 454h93zM421 828l-170 -89 l-22 38l176 131h53l118 -129l-38 -37z" glyph-name="Ucircumflex" unicode="Û"/>
<glyph horiz-adv-x="610" d="M563 218q-11 -53 -36 -95t-62.5 -71t-85.5 -44t-104 -15q-44 0 -84 12t-70.5 36t-48.5 60.5t-18 84.5q0 13 1 26t4 27l87 450h93l-88 -454q-2 -10 -3 -19t-1 -17q0 -33 12 -56t31.5 -37.5t43.5 -21.5t47 -7q34 0 65 9t57 28t44.5 49t26.5 72l88 454h93zM562 793 q-5 -20 -22 -34.5t-37 -14.5t-31.5 14.5t-6.5 34.5q4 20 20.5 34t36.5 14t32 -14t8 -34zM366 793q-5 -20 -21.5 -34.5t-36.5 -14.5t-32 14.5t-7 34.5q4 20 21 34t37 14t31.5 -14t7.5 -34z" glyph-name="Udieresis" unicode="Ü"/>
<glyph horiz-adv-x="537" d="M292 361l107 164l109 164h103l-288 -424l-51 -265h-92l51 264l-127 425h96l51 -191l36 -137h5zM294 780l172 122l47 -61l-190 -103z" glyph-name="Yacute" unicode="Ý"/>
<glyph horiz-adv-x="554" d="M242 689l-27 -141h175q45 0 77.5 -15.5t53.5 -41t31 -58t10 -67.5q0 -46 -16 -88t-45.5 -73.5t-72 -50t-95.5 -18.5h-201l-26 -136h-92l134 689h94zM196 464l-47 -243h174q29 0 56 10t47.5 28.5t32.5 44t12 55.5q0 49 -29 77t-79 28h-167z" glyph-name="Thorn" unicode="Þ"/>
<glyph horiz-adv-x="521" d="M115 0h-84l100 523q17 90 73 137.5t137 47.5q49 0 82.5 -14t54.5 -36t30 -49.5t9 -54.5q0 -36 -18.5 -73.5t-64.5 -63.5q32 -13 46 -43.5t14 -65.5q0 -19 -5 -44l-19 -93q-35 -176 -211 -176q-13 0 -27 1t-29 3l18 77q9 -1 18 -1.5t18 -0.5q23 0 43.5 4t37 15.5t29 31 t18.5 50.5l20 95q3 12 3 23q0 35 -25 55t-67 20h-21l13 70h14q23 0 44 9.5t36.5 25t24.5 35t9 40.5q0 34 -24.5 60.5t-69.5 26.5q-30 0 -52 -9.5t-37 -24.5t-23.5 -34.5t-12.5 -39.5z" glyph-name="germandbls" unicode="ß"/>
<glyph horiz-adv-x="501" d="M338 0v50q-35 -16 -60.5 -26.5t-45 -17t-34.5 -9t-28 -2.5q-63 0 -100 34.5t-37 97.5q0 11 1.5 22t3.5 23l30 152q17 85 63 131t131 46q13 0 28 -1.5t33.5 -7t41 -15.5t50.5 -26l20 44h75l-97 -495h-75zM398 370q-29 23 -64.5 36t-72.5 13q-40 0 -69 -24t-40 -81 l-26 -131q-2 -10 -3 -18.5t-1 -16.5q0 -37 19.5 -53t50.5 -16t74 17.5t89 40.5zM356 554l-147 163l68 30l117 -170z" glyph-name="agrave" unicode="à"/>
<glyph horiz-adv-x="501" d="M338 0v50q-35 -16 -60.5 -26.5t-45 -17t-34.5 -9t-28 -2.5q-63 0 -100 34.5t-37 97.5q0 11 1.5 22t3.5 23l30 152q17 85 63 131t131 46q13 0 28 -1.5t33.5 -7t41 -15.5t50.5 -26l20 44h75l-97 -495h-75zM398 370q-29 23 -64.5 36t-72.5 13q-40 0 -69 -24t-40 -81 l-26 -131q-2 -10 -3 -18.5t-1 -16.5q0 -37 19.5 -53t50.5 -16t74 17.5t89 40.5zM290 571l107 177l76 -25l-134 -172z" glyph-name="aacute" unicode="á"/>
<glyph horiz-adv-x="501" d="M338 0v50q-35 -16 -60.5 -26.5t-45 -17t-34.5 -9t-28 -2.5q-63 0 -100 34.5t-37 97.5q0 11 1.5 22t3.5 23l30 152q17 85 63 131t131 46q13 0 28 -1.5t33.5 -7t41 -15.5t50.5 -26l20 44h75l-97 -495h-75zM398 370q-29 23 -64.5 36t-72.5 13q-40 0 -69 -24t-40 -81 l-26 -131q-2 -10 -3 -18.5t-1 -16.5q0 -37 19.5 -53t50.5 -16t74 17.5t89 40.5zM355 662l-164 -110l-36 42l178 149h53l114 -151l-42 -39z" glyph-name="acircumflex" unicode="â"/>
<glyph horiz-adv-x="501" d="M338 0v50q-35 -16 -60.5 -26.5t-45 -17t-34.5 -9t-28 -2.5q-63 0 -100 34.5t-37 97.5q0 11 1.5 22t3.5 23l30 152q17 85 63 131t131 46q13 0 28 -1.5t33.5 -7t41 -15.5t50.5 -26l20 44h75l-97 -495h-75zM398 370q-29 23 -64.5 36t-72.5 13q-40 0 -69 -24t-40 -81 l-26 -131q-2 -10 -3 -18.5t-1 -16.5q0 -37 19.5 -53t50.5 -16t74 17.5t89 40.5zM272 699q18 0 34 -7t31 -15.5t29 -15.5t27 -7q14 0 31.5 10.5t37.5 34.5l45 -31q-28 -48 -58.5 -68.5t-61.5 -20.5q-18 0 -34 6.5t-31 14.5t-29.5 14.5t-29.5 6.5q-17 0 -31.5 -8.5 t-37.5 -31.5l-45 29q24 45 58.5 67t64.5 22z" glyph-name="atilde" unicode="ã"/>
<glyph horiz-adv-x="501" d="M338 0v50q-35 -16 -60.5 -26.5t-45 -17t-34.5 -9t-28 -2.5q-63 0 -100 34.5t-37 97.5q0 11 1.5 22t3.5 23l30 152q17 85 63 131t131 46q13 0 28 -1.5t33.5 -7t41 -15.5t50.5 -26l20 44h75l-97 -495h-75zM398 370q-29 23 -64.5 36t-72.5 13q-40 0 -69 -24t-40 -81 l-26 -131q-2 -10 -3 -18.5t-1 -16.5q0 -37 19.5 -53t50.5 -16t74 17.5t89 40.5zM474 639q-5 -20 -22 -34.5t-37 -14.5q-17 0 -28 11t-11 28q0 23 18 40.5t40 17.5q18 0 29.5 -11t11.5 -28q0 -6 -1 -9zM278 639q-5 -20 -21.5 -34.5t-36.5 -14.5q-17 0 -28.5 11t-11.5 28 q0 23 18 40.5t41 17.5q18 0 29 -11t11 -28q0 -6 -1 -9z" glyph-name="adieresis" unicode="ä"/>
<glyph horiz-adv-x="501" d="M338 0v50q-35 -16 -60.5 -26.5t-45 -17t-34.5 -9t-28 -2.5q-63 0 -100 34.5t-37 97.5q0 11 1.5 22t3.5 23l30 152q17 85 63 131t131 46q13 0 28 -1.5t33.5 -7t41 -15.5t50.5 -26l20 44h75l-97 -495h-75zM398 370q-29 23 -64.5 36t-72.5 13q-40 0 -69 -24t-40 -81 l-26 -131q-2 -10 -3 -18.5t-1 -16.5q0 -37 19.5 -53t50.5 -16t74 17.5t89 40.5zM330 541q-37 0 -61 23.5t-24 58.5q0 24 9 45.5t25 38t38 26t49 9.5q38 0 61.5 -24.5t23.5 -60.5q0 -27 -10.5 -48.5t-27.5 -36.5t-39 -23t-44 -8zM357 693q-25 0 -43 -19t-18 -43 q0 -18 11 -29.5t30 -11.5q24 0 44 18.5t20 43.5q0 17 -12.5 29t-31.5 12z" glyph-name="aring" unicode="å"/>
<glyph horiz-adv-x="799" d="M614 423q-64 0 -98 -40t-48 -110q12 -1 23 -1h22q60 0 96 8t55.5 20.5t26 27.5t6.5 29q0 32 -20 49t-63 17zM469 449q29 25 66 38.5t84 13.5q75 0 121 -36t46 -99q0 -31 -11 -61.5t-42.5 -54.5t-87.5 -38.5t-145 -14.5h-21t-22 1q-5 -20 -5 -36q0 -39 25.5 -64.5 t76.5 -25.5q29 0 58 11t52 36l58 -62q-37 -34 -80.5 -48.5t-91.5 -14.5q-60 0 -100.5 21t-61.5 59q-48 -42 -104.5 -60t-121.5 -18q-63 0 -97.5 30t-34.5 84q0 51 22.5 86t55.5 56t69.5 30.5t64.5 9.5q26 0 41 -1.5t28.5 -3t29.5 -4t43 -5.5l10 52q2 7 2 12.5v10.5 q0 41 -28.5 55.5t-72.5 14.5q-26 0 -62.5 -7.5t-80.5 -38.5l-29 65q56 37 102.5 48t88.5 11q111 0 150 -56zM194 73q24 0 51.5 5.5t51.5 16.5t41.5 27.5t22.5 38.5l11 50q-24 3 -39 4.5t-28 3t-27.5 2t-35.5 0.5q-15 0 -36 -2.5t-40 -12t-32.5 -27.5t-13.5 -49 q0 -29 20.5 -43t53.5 -14z" glyph-name="ae" unicode="æ"/>
<glyph horiz-adv-x="426" d="M281 501q43 0 88 -14t72 -51l-54 -60q-23 28 -52.5 37t-51.5 9q-49 0 -84 -27.5t-47 -90.5l-22 -112q-3 -15 -3 -28q0 -24 9 -41t23 -27.5t32 -15.5t36 -5q23 0 54.5 9t59.5 32l49 -65q-37 -31 -81 -43t-86 -13l-16 -34q25 -2 42.5 -9t27.5 -17.5t14.5 -22.5t4.5 -24 q0 -17 -7.5 -34.5t-22.5 -31.5t-38.5 -23t-55.5 -9h-16t-24.5 1.5t-28 5t-26.5 9.5l20 46q20 -9 41.5 -12t35.5 -3q19 0 38.5 10t19.5 32q0 20 -14 31t-40 11h-12l-17 16l29 62q-28 4 -53 15.5t-43.5 30.5t-29.5 45t-11 60q0 22 4 41l25 133q16 85 69.5 131t141.5 46z" glyph-name="ccedilla" unicode="ç"/>
<glyph horiz-adv-x="470" d="M285 501q75 0 121 -36t46 -99q0 -31 -11 -61.5t-42.5 -54.5t-87.5 -38.5t-145 -14.5h-21t-22 1q-5 -20 -5 -36q0 -39 25.5 -64.5t76.5 -25.5q29 0 58 11t52 36l58 -62q-37 -34 -80.5 -48.5t-91.5 -14.5q-87 0 -134 44t-47 119q0 34 7.5 80t20.5 90q23 82 78.5 128 t143.5 46zM280 423q-64 0 -98 -40t-48 -110q12 -1 23 -1h22q60 0 96 8t55.5 20.5t26 27.5t6.5 29q0 32 -20 49t-63 17zM308 554l-147 163l68 30l117 -170z" glyph-name="egrave" unicode="è"/>
<glyph horiz-adv-x="470" d="M285 501q75 0 121 -36t46 -99q0 -31 -11 -61.5t-42.5 -54.5t-87.5 -38.5t-145 -14.5h-21t-22 1q-5 -20 -5 -36q0 -39 25.5 -64.5t76.5 -25.5q29 0 58 11t52 36l58 -62q-37 -34 -80.5 -48.5t-91.5 -14.5q-87 0 -134 44t-47 119q0 34 7.5 80t20.5 90q23 82 78.5 128 t143.5 46zM280 423q-64 0 -98 -40t-48 -110q12 -1 23 -1h22q60 0 96 8t55.5 20.5t26 27.5t6.5 29q0 32 -20 49t-63 17zM260 571l107 177l76 -25l-134 -172z" glyph-name="eacute" unicode="é"/>
<glyph horiz-adv-x="470" d="M285 501q75 0 121 -36t46 -99q0 -31 -11 -61.5t-42.5 -54.5t-87.5 -38.5t-145 -14.5h-21t-22 1q-5 -20 -5 -36q0 -39 25.5 -64.5t76.5 -25.5q29 0 58 11t52 36l58 -62q-37 -34 -80.5 -48.5t-91.5 -14.5q-87 0 -134 44t-47 119q0 34 7.5 80t20.5 90q23 82 78.5 128 t143.5 46zM280 423q-64 0 -98 -40t-48 -110q12 -1 23 -1h22q60 0 96 8t55.5 20.5t26 27.5t6.5 29q0 32 -20 49t-63 17zM325 662l-164 -110l-36 42l178 149h53l114 -151l-42 -39z" glyph-name="ecircumflex" unicode="ê"/>
<glyph horiz-adv-x="470" d="M285 501q75 0 121 -36t46 -99q0 -31 -11 -61.5t-42.5 -54.5t-87.5 -38.5t-145 -14.5h-21t-22 1q-5 -20 -5 -36q0 -39 25.5 -64.5t76.5 -25.5q29 0 58 11t52 36l58 -62q-37 -34 -80.5 -48.5t-91.5 -14.5q-87 0 -134 44t-47 119q0 34 7.5 80t20.5 90q23 82 78.5 128 t143.5 46zM280 423q-64 0 -98 -40t-48 -110q12 -1 23 -1h22q60 0 96 8t55.5 20.5t26 27.5t6.5 29q0 32 -20 49t-63 17zM455 639q-5 -20 -22 -34.5t-37 -14.5q-17 0 -28 11t-11 28q0 23 18 40.5t40 17.5q18 0 29.5 -11t11.5 -28q0 -6 -1 -9zM259 639q-5 -20 -21.5 -34.5 t-36.5 -14.5q-17 0 -28.5 11t-11.5 28q0 23 18 40.5t41 17.5q18 0 29 -11t11 -28q0 -6 -1 -9z" glyph-name="edieresis" unicode="ë"/>
<glyph horiz-adv-x="260" d="M240 496l-67 -347q-2 -11 -3 -19t-1 -15q0 -25 12.5 -32.5t35.5 -10.5l-16 -76h-11q-51 0 -80 24t-29 74q0 20 4 39l70 363h85zM219 554l-147 163l68 30l117 -170z" glyph-name="igrave" unicode="ì"/>
<glyph horiz-adv-x="248" d="M208 496l-67 -347q-2 -11 -3 -19t-1 -15q0 -25 12.5 -32.5t35.5 -10.5l-16 -76h-11q-51 0 -80 24t-29 74q0 20 4 39l70 363h85zM146 571l107 177l76 -25l-134 -172z" glyph-name="iacute" unicode="í"/>
<glyph horiz-adv-x="303" d="M250 496l-67 -347q-2 -11 -3 -19t-1 -15q0 -25 12.5 -32.5t35.5 -10.5l-16 -76h-11q-51 0 -80 24t-29 74q0 20 4 39l70 363h85zM250 662l-164 -110l-36 42l178 149h53l114 -151l-42 -39z" glyph-name="icircumflex" unicode="î"/>
<glyph horiz-adv-x="285" d="M241 496l-67 -347q-2 -11 -3 -19t-1 -15q0 -25 12.5 -32.5t35.5 -10.5l-16 -76h-11q-51 0 -80 24t-29 74q0 20 4 39l70 363h85zM372 639q-5 -20 -22 -34.5t-37 -14.5q-17 0 -28 11t-11 28q0 23 18 40.5t40 17.5q18 0 29.5 -11t11.5 -28q0 -6 -1 -9zM176 639 q-5 -20 -21.5 -34.5t-36.5 -14.5q-17 0 -28.5 11t-11.5 28q0 23 18 40.5t41 17.5q18 0 29 -11t11 -28q0 -6 -1 -9z" glyph-name="idieresis" unicode="ï"/>
<glyph horiz-adv-x="493" d="M490 605q10 -23 14 -48.5t4 -54.5q0 -47 -8.5 -99t-19.5 -108l-23 -119q-19 -97 -76.5 -138.5t-141.5 -41.5q-42 0 -77 13t-60 36t-39 54t-14 68q0 17 3 35l18 94q7 37 22 70.5t40.5 58t62 39t86.5 14.5q16 0 35.5 -4t37.5 -11.5t33.5 -18t25.5 -23.5l4 1q4 18 5.5 36.5 t1.5 35.5q0 41 -9 64l-71 -44l-28 45l72 45q-14 16 -40.5 31t-79.5 26l23 69q60 -5 104 -28t67 -52l93 58l28 -45zM390 266q3 13 3 26q0 25 -9.5 44.5t-25 33t-36.5 20.5t-43 7q-54 0 -85 -31t-42 -86l-14 -76q-3 -17 -3 -30q0 -50 30.5 -74.5t74.5 -24.5q26 0 48 5.5 t39 18.5t29.5 35t18.5 55z" glyph-name="eth" unicode="ð"/>
<glyph horiz-adv-x="497" d="M347 501q63 0 100 -34t37 -97q0 -11 -1.5 -22.5t-3.5 -23.5l-63 -324h-86l61 313q2 10 3 18.5t1 16.5q0 38 -20 53.5t-52 15.5q-31 0 -72.5 -15.5t-88.5 -45.5l-69 -356h-86l97 496h75v-52q37 21 63 32.5t45 17t33 6.5t27 1zM268 699q18 0 34 -7t31 -15.5t29 -15.5t27 -7 q14 0 31.5 10.5t37.5 34.5l45 -31q-28 -48 -58.5 -68.5t-61.5 -20.5q-18 0 -34 6.5t-31 14.5t-29.5 14.5t-29.5 6.5q-17 0 -31.5 -8.5t-37.5 -31.5l-45 29q24 45 58.5 67t64.5 22z" glyph-name="ntilde" unicode="ñ"/>
<glyph horiz-adv-x="505" d="M455 171q-11 -52 -32.5 -86t-51 -54t-65.5 -28t-76 -8q-34 0 -66.5 10.5t-58 32t-41 53.5t-15.5 75q0 11 1 22t3 23l20 106q17 86 68.5 135t149.5 49q45 0 80 -14t59.5 -38t37.5 -56t13 -68q0 -22 -4 -41zM393 282q4 16 4 34q0 50 -31 77.5t-79 27.5q-50 0 -84.5 -26 t-46.5 -91l-18 -98q-3 -18 -3 -33q0 -27 9 -46t23.5 -30.5t32.5 -17t36 -5.5q21 0 42 4t40 17t33.5 36t22.5 61zM336 554l-147 163l68 30l117 -170z" glyph-name="ograve" unicode="ò"/>
<glyph horiz-adv-x="505" d="M455 171q-11 -52 -32.5 -86t-51 -54t-65.5 -28t-76 -8q-34 0 -66.5 10.5t-58 32t-41 53.5t-15.5 75q0 11 1 22t3 23l20 106q17 86 68.5 135t149.5 49q45 0 80 -14t59.5 -38t37.5 -56t13 -68q0 -22 -4 -41zM393 282q4 16 4 34q0 50 -31 77.5t-79 27.5q-50 0 -84.5 -26 t-46.5 -91l-18 -98q-3 -18 -3 -33q0 -27 9 -46t23.5 -30.5t32.5 -17t36 -5.5q21 0 42 4t40 17t33.5 36t22.5 61zM275 571l107 177l76 -25l-134 -172z" glyph-name="oacute" unicode="ó"/>
<glyph horiz-adv-x="505" d="M455 171q-11 -52 -32.5 -86t-51 -54t-65.5 -28t-76 -8q-34 0 -66.5 10.5t-58 32t-41 53.5t-15.5 75q0 11 1 22t3 23l20 106q17 86 68.5 135t149.5 49q45 0 80 -14t59.5 -38t37.5 -56t13 -68q0 -22 -4 -41zM393 282q4 16 4 34q0 50 -31 77.5t-79 27.5q-50 0 -84.5 -26 t-46.5 -91l-18 -98q-3 -18 -3 -33q0 -27 9 -46t23.5 -30.5t32.5 -17t36 -5.5q21 0 42 4t40 17t33.5 36t22.5 61zM349 662l-164 -110l-36 42l178 149h53l114 -151l-42 -39z" glyph-name="ocircumflex" unicode="ô"/>
<glyph horiz-adv-x="505" d="M455 171q-11 -52 -32.5 -86t-51 -54t-65.5 -28t-76 -8q-34 0 -66.5 10.5t-58 32t-41 53.5t-15.5 75q0 11 1 22t3 23l20 106q17 86 68.5 135t149.5 49q45 0 80 -14t59.5 -38t37.5 -56t13 -68q0 -22 -4 -41zM393 282q4 16 4 34q0 50 -31 77.5t-79 27.5q-50 0 -84.5 -26 t-46.5 -91l-18 -98q-3 -18 -3 -33q0 -27 9 -46t23.5 -30.5t32.5 -17t36 -5.5q21 0 42 4t40 17t33.5 36t22.5 61zM262 699q18 0 34 -7t31 -15.5t29 -15.5t27 -7q14 0 31.5 10.5t37.5 34.5l45 -31q-28 -48 -58.5 -68.5t-61.5 -20.5q-18 0 -34 6.5t-31 14.5t-29.5 14.5 t-29.5 6.5q-17 0 -31.5 -8.5t-37.5 -31.5l-45 29q24 45 58.5 67t64.5 22z" glyph-name="otilde" unicode="õ"/>
<glyph horiz-adv-x="505" d="M455 171q-11 -52 -32.5 -86t-51 -54t-65.5 -28t-76 -8q-34 0 -66.5 10.5t-58 32t-41 53.5t-15.5 75q0 11 1 22t3 23l20 106q17 86 68.5 135t149.5 49q45 0 80 -14t59.5 -38t37.5 -56t13 -68q0 -22 -4 -41zM393 282q4 16 4 34q0 50 -31 77.5t-79 27.5q-50 0 -84.5 -26 t-46.5 -91l-18 -98q-3 -18 -3 -33q0 -27 9 -46t23.5 -30.5t32.5 -17t36 -5.5q21 0 42 4t40 17t33.5 36t22.5 61zM483 639q-5 -20 -22 -34.5t-37 -14.5q-17 0 -28 11t-11 28q0 23 18 40.5t40 17.5q18 0 29.5 -11t11.5 -28q0 -6 -1 -9zM287 639q-5 -20 -21.5 -34.5 t-36.5 -14.5q-17 0 -28.5 11t-11.5 28q0 23 18 40.5t41 17.5q18 0 29 -11t11 -28q0 -6 -1 -9z" glyph-name="odieresis" unicode="ö"/>
<glyph d="M317 530q20 0 33 -13t13 -33q0 -14 -6 -26t-15.5 -21.5t-22 -15t-25.5 -5.5q-21 0 -34 13t-13 33q0 27 21.5 47.5t48.5 20.5zM38 262l13 63h451l-13 -63h-451zM247 172q21 0 34 -12.5t13 -32.5q0 -28 -21.5 -48t-47.5 -20q-21 0 -34 13t-13 33q0 27 21 47t48 20z" glyph-name="divide" unicode="÷"/>
<glyph horiz-adv-x="505" d="M455 171q-11 -52 -32.5 -86t-51 -54t-65.5 -28t-76 -8q-34 0 -65.5 10t-57.5 31l-35 -41l-33 28l38 45q-28 39 -28 98q0 11 1 22t3 23l20 106q17 86 68.5 135t149.5 49q38 0 70 -10.5t55 -28.5l36 41l34 -27l-39 -46q34 -45 34 -105q0 -22 -4 -41zM393 282q4 16 4 34 q0 25 -9 46l-225 -262q14 -14 33.5 -20t39.5 -6q21 0 42 4t40 17t33.5 36t22.5 61zM135 173q0 -9 1 -17.5t3 -15.5l222 257q-29 24 -74 24q-50 0 -84.5 -26t-46.5 -91l-18 -98q-3 -18 -3 -33z" glyph-name="oslash" unicode="ø"/>
<glyph horiz-adv-x="501" d="M343 0l-2 52q-31 -20 -56 -31t-45.5 -17t-37 -7.5t-29.5 -1.5q-63 0 -100.5 34.5t-37.5 97.5q0 11 1.5 22t3.5 23l64 324h86l-61 -313q-2 -10 -3 -18.5t-1 -16.5q0 -37 19.5 -53t50.5 -16q30 0 74.5 18t89.5 48l69 351h85l-96 -496h-74zM335 554l-147 163l68 30l117 -170 z" glyph-name="ugrave" unicode="ù"/>
<glyph horiz-adv-x="501" d="M343 0l-2 52q-31 -20 -56 -31t-45.5 -17t-37 -7.5t-29.5 -1.5q-63 0 -100.5 34.5t-37.5 97.5q0 11 1.5 22t3.5 23l64 324h86l-61 -313q-2 -10 -3 -18.5t-1 -16.5q0 -37 19.5 -53t50.5 -16q30 0 74.5 18t89.5 48l69 351h85l-96 -496h-74zM279 571l107 177l76 -25 l-134 -172z" glyph-name="uacute" unicode="ú"/>
<glyph horiz-adv-x="501" d="M343 0l-2 52q-31 -20 -56 -31t-45.5 -17t-37 -7.5t-29.5 -1.5q-63 0 -100.5 34.5t-37.5 97.5q0 11 1.5 22t3.5 23l64 324h86l-61 -313q-2 -10 -3 -18.5t-1 -16.5q0 -37 19.5 -53t50.5 -16q30 0 74.5 18t89.5 48l69 351h85l-96 -496h-74zM346 662l-164 -110l-36 42 l178 149h53l114 -151l-42 -39z" glyph-name="ucircumflex" unicode="û"/>
<glyph horiz-adv-x="501" d="M343 0l-2 52q-31 -20 -56 -31t-45.5 -17t-37 -7.5t-29.5 -1.5q-63 0 -100.5 34.5t-37.5 97.5q0 11 1.5 22t3.5 23l64 324h86l-61 -313q-2 -10 -3 -18.5t-1 -16.5q0 -37 19.5 -53t50.5 -16q30 0 74.5 18t89.5 48l69 351h85l-96 -496h-74zM478 639q-5 -20 -22 -34.5 t-37 -14.5q-17 0 -28 11t-11 28q0 23 18 40.5t40 17.5q18 0 29.5 -11t11.5 -28q0 -6 -1 -9zM282 639q-5 -20 -21.5 -34.5t-36.5 -14.5q-17 0 -28.5 11t-11.5 28q0 23 18 40.5t41 17.5q18 0 29 -11t11 -28q0 -6 -1 -9z" glyph-name="udieresis" unicode="ü"/>
<glyph horiz-adv-x="447" d="M328 353q22 41 32 66.5t10 57.5v20h87v-19q0 -45 -12.5 -76.5t-33.5 -68.5l-293 -534h-91l111 210l-35 35l-48 452h88l17 -204l17 -216h3zM238 571l107 177l76 -25l-134 -172z" glyph-name="yacute" unicode="ý"/>
<glyph horiz-adv-x="496" d="M224 689l-46 -246q64 35 102.5 46t65.5 11q63 0 100 -30t37 -96q0 -12 -1 -24.5t-4 -26.5l-30 -152q-17 -85 -67.5 -131t-140.5 -46q-27 0 -60 5.5t-83 25.5l-43 -223h-84l169 887h85zM113 106q44 -20 74 -25.5t61 -5.5q20 0 38.5 4.5t33.5 16t26 31t17 48.5l28 142 q2 10 3 18.5t1 16.5q0 37 -20 51t-53 14q-29 0 -73.5 -17t-86.5 -41z" glyph-name="thorn" unicode="þ"/>
<glyph horiz-adv-x="557" d="M21 0l134 689h450l-16 -84h-358l-42 -219h314l-16 -83h-315l-43 -220h388l-16 -83h-480zM553 793q-5 -20 -22 -34.5t-37 -14.5t-31.5 14.5t-6.5 34.5q4 20 20.5 34t36.5 14t32 -14t8 -34zM357 793q-5 -20 -21.5 -34.5t-36.5 -14.5t-32 14.5t-7 34.5q4 20 21 34t37 14 t31.5 -14t7.5 -34z" glyph-name="afii10023" unicode="Ё"/>
<glyph horiz-adv-x="707" d="M405 -1q5 -1 9.5 -1h9.5q37 0 63 10t43.5 30.5t28.5 50.5t19 70l14 68q7 31 7 60q0 109 -116 109q-20 0 -42.5 -5.5t-45 -14t-43 -19.5t-37.5 -22l-65 -335h-93l117 604h-179l16 85h531l-16 -85h-259l-34 -172q40 22 85 36.5t87 14.5q49 0 84 -14t58 -39t34 -59t11 -74 q0 -35 -7 -69l-16 -80q-10 -50 -25.5 -92.5t-43 -74t-70 -49.5t-105.5 -18q-9 0 -18.5 0.5t-19.5 1.5z" glyph-name="afii10051" unicode="Ђ"/>
<glyph horiz-adv-x="513" d="M211 605l-118 -605h-92l134 689h450l-16 -84h-358zM294 780l172 122l47 -61l-190 -103z" glyph-name="afii10052" unicode="Ѓ"/>
<glyph horiz-adv-x="534" d="M382 696q57 0 110 -15t91 -47l-55 -72q-11 11 -28.5 20.5t-37.5 16t-41.5 10.5t-40.5 4q-74 0 -116.5 -37.5t-59.5 -123.5l-12 -59h234l-15 -81h-236l-14 -70q-4 -19 -4 -38q0 -32 12 -56t31.5 -39.5t45 -23t52.5 -7.5q39 0 85.5 13.5t82.5 39.5l38 -76q-18 -13 -42 -24 t-52.5 -19.5t-59 -13.5t-60.5 -5q-46 0 -87.5 13t-72.5 37.5t-49 60t-18 80.5q0 11 1.5 23t3.5 24l47 240q10 52 29 93.5t50.5 71t77.5 45t110 15.5z" glyph-name="afii10053" unicode="Є"/>
<glyph horiz-adv-x="556" d="M367 702q58 0 112.5 -15.5t95.5 -43.5l-49 -73q-33 23 -76.5 35.5t-89.5 12.5q-24 0 -51 -8t-49.5 -24t-37.5 -40t-15 -57q0 -26 14 -43t32.5 -27.5t38 -15.5t31.5 -8q42 -9 81 -20.5t69.5 -30.5t49 -50t18.5 -79q0 -52 -23 -93t-62 -69.5t-90 -43.5t-107 -15 q-73 0 -133 22.5t-104 65.5q14 15 27.5 31.5t27.5 31.5q35 -31 83 -49t105 -18q37 0 69 9.5t56 26.5t38 42t14 56q0 25 -13 42t-32 28t-41 17t-40 9q-37 7 -73.5 18t-65 30.5t-46 49.5t-17.5 74q0 48 18 88.5t51 70.5t79.5 46.5t104.5 16.5z" glyph-name="afii10054" unicode="Ѕ"/>
<glyph horiz-adv-x="252" d="M55 0l134 689h92l-134 -689h-92z" glyph-name="afii10055" unicode="І"/>
<glyph horiz-adv-x="252" d="M52 0l134 689h92l-134 -689h-92zM398 818q-5 -20 -22 -34.5t-37 -14.5q-17 0 -28 11t-11 28q0 23 18 40.5t40 17.5q18 0 29.5 -11t11.5 -28q0 -6 -1 -9zM202 818q-5 -20 -21.5 -34.5t-36.5 -14.5q-17 0 -28.5 11t-11.5 28q0 23 18 40.5t41 17.5q18 0 29 -11t11 -28 q0 -6 -1 -9z" glyph-name="afii10056" unicode="Ї"/>
<glyph horiz-adv-x="521" d="M443 222q-10 -53 -30 -95.5t-51 -72t-74 -45.5t-99 -16q-23 0 -51 3.5t-55.5 11t-51.5 18t-40 24.5l50 69q16 -12 36 -19.5t41 -12.5t41 -7t35 -2q30 0 55.5 8t46 27t35.5 50.5t24 78.5l87 447h92l-91 -467v0z" glyph-name="afii10057" unicode="Ј"/>
<glyph horiz-adv-x="906" d="M327 605l-42 -218q-19 -97 -42 -167t-55 -118.5t-74.5 -78.5t-100.5 -46l-25 76q46 17 78 41.5t55 63t40 95.5t33 140l57 296h355l-55 -284h171q85 0 131.5 -45.5t46.5 -121.5q0 -46 -14 -89t-42.5 -76t-72 -53t-101.5 -20h-288l116 605h-171zM535 320l-46 -236h173 q67 0 107.5 38.5t40.5 105.5q0 92 -118 92h-157z" glyph-name="afii10058" unicode="Љ"/>
<glyph horiz-adv-x="928" d="M389 0l61 317h-266l-60 -317h-91l132 689h91l-56 -288h265l56 288h91l-56 -288h171q85 0 131.5 -45t46.5 -121q0 -46 -14 -88.5t-42 -75t-71 -52t-101 -19.5h-288zM540 316l-44 -232h173q67 0 106.5 37t39.5 104q0 91 -118 91h-157z" glyph-name="afii10059" unicode="Њ"/>
<glyph horiz-adv-x="727" d="M551 0l43 227q3 17 5 31t2 28q0 110 -120 110q-41 0 -85.5 -19.5t-78.5 -41.5l-65 -335h-93l117 604h-179l16 85h531l-16 -85h-259l-34 -172q40 22 83 36.5t85 14.5q49 0 85 -14.5t59.5 -39.5t35 -60t11.5 -75q0 -16 -2 -32.5t-5 -33.5l-43 -228h-93z" glyph-name="afii10060" unicode="Ћ"/>
<glyph horiz-adv-x="550" d="M21 0l127 689h90l-55 -297h105q16 0 34 3t36.5 13t36 30t32.5 55l86 196h93l-89 -209q-22 -52 -53 -84.5t-65 -43.5q39 -14 56 -49.5t22 -86.5l24 -216h-94l-21 206q-3 34 -13 55.5t-24.5 32.5t-32.5 15t-37 4h-110l-58 -313h-90zM313 780l172 122l47 -61l-190 -103z" glyph-name="afii10061" unicode="Ќ"/>
<glyph horiz-adv-x="552" d="M303 119q-24 -42 -45 -66.5t-43 -38t-46.5 -17.5t-53.5 -4h-55l11 85h43q35 0 57.5 12t39.5 44l12 22l-97 533h92l35 -219l33 -213h5l114 209l123 223h99zM313 844v-6q0 -10 3.5 -21t10.5 -20t18.5 -15t28.5 -6q36 0 57.5 21.5t26.5 46.5h77q-6 -24 -18.5 -48 t-32.5 -43.5t-48 -31.5t-67 -12q-67 0 -97.5 31t-30.5 83v10.5t1 10.5h71z" glyph-name="afii10062" unicode="Ў"/>
<glyph horiz-adv-x="603" d="M225 0h-207l134 689h92l-118 -606h323l118 606h94l-134 -689h-205l-33 -167h-97z" glyph-name="afii10145" unicode="Џ"/>
<glyph horiz-adv-x="597" d="M460 0l-24 155h-272l-82 -155h-98l370 689h92l107 -689h-93zM376 563l-80 -160l-86 -164h213l-23 164l-20 160h-4z" glyph-name="afii10017" unicode="А"/>
<glyph horiz-adv-x="590" d="M175 689h398l-15 -85h-307l-39 -199h171q85 0 131.5 -45.5t46.5 -121.5q0 -46 -14 -89t-42.5 -76t-71.5 -53t-101 -20h-288zM196 320l-45 -236h173q66 0 106.5 38.5t40.5 105.5q0 92 -117 92h-158z" glyph-name="afii10018" unicode="Б"/>
<glyph horiz-adv-x="593" d="M437 689q46 0 79 -13.5t54.5 -37t31.5 -54t10 -63.5q0 -51 -27.5 -93.5t-89.5 -73.5q39 -22 52.5 -57.5t13.5 -75.5q0 -42 -15 -82t-44.5 -71t-71.5 -49.5t-96 -18.5h-307l134 689h276zM238 605l-41 -210h183q26 0 50.5 9t43.5 24.5t30.5 37t11.5 46.5q0 48 -29 70.5 t-74 22.5h-175zM181 311l-45 -228h180q31 0 58.5 8.5t48.5 25t33 41t12 55.5q0 48 -29.5 73t-73.5 25h-184z" glyph-name="afii10019" unicode="В"/>
<glyph horiz-adv-x="513" d="M231 605l-118 -605h-92l134 689h450l-16 -84h-358z" glyph-name="afii10020" unicode="Г"/>
<glyph horiz-adv-x="691" d="M37 86q26 17 48 41.5t41 62.5t36.5 93t35.5 132l64 274h435l-116 -605h56l-45 -233h-90l29 149h-471l-29 -149h-89l44 235h51zM330 605l-48 -198q-17 -67 -30.5 -117t-27.5 -88.5t-31 -67t-41 -51.5h334l101 522h-257z" glyph-name="afii10021" unicode="Д"/>
<glyph horiz-adv-x="557" d="M21 0l134 689h450l-16 -84h-358l-42 -219h314l-16 -83h-315l-43 -220h388l-16 -83h-480z" glyph-name="afii10022" unicode="Е"/>
<glyph horiz-adv-x="862" d="M411 313h-82q-20 0 -39 -3.5t-37.5 -15t-36 -32.5t-32.5 -56l-89 -206h-98l98 220q23 52 54.5 88t76.5 50q-30 11 -49 43.5t-24 83.5l-30 204h87l30 -196q4 -34 16 -54t27.5 -30.5t33 -13.5t34.5 -3h74l55 297h90l-55 -297h75q16 0 34.5 3t37.5 13.5t38 30.5t36 54 l87 196h89l-90 -211q-26 -59 -56 -86t-64 -38q40 -14 57 -50.5t22 -87.5l26 -216h-93l-21 206q-3 34 -13.5 55.5t-25 32.5t-33 15t-37.5 4h-83l-58 -313h-90z" glyph-name="afii10024" unicode="Ж"/>
<glyph horiz-adv-x="574" d="M353 695q45 0 84.5 -9.5t68.5 -29t45.5 -49t16.5 -70.5q0 -61 -37.5 -106t-95.5 -65q39 -21 60 -57.5t21 -77.5q0 -59 -21.5 -103.5t-58.5 -74.5t-87 -45t-108 -15q-32 0 -65 5.5t-62.5 15t-53.5 22t-37 26.5l60 64q12 -11 31.5 -20.5t41.5 -16.5t44.5 -11t41.5 -4 q39 0 72.5 10t58 29t38.5 46t14 62q0 51 -32.5 79.5t-92.5 28.5h-78l16 77h91q19 0 44.5 5.5t47.5 19t37.5 36.5t15.5 57q0 24 -10 41t-27.5 28t-40.5 16t-48 5q-51 0 -96 -16t-78 -39l-43 66q40 28 98.5 49t123.5 21z" glyph-name="afii10025" unicode="З"/>
<glyph horiz-adv-x="639" d="M553 527l-439 -527h-86l131 689h92l-100 -520h7l435 520h88l-131 -689h-92l101 527h-6z" glyph-name="afii10026" unicode="И"/>
<glyph horiz-adv-x="639" d="M553 527l-439 -527h-86l131 689h92l-100 -520h7l435 520h88l-131 -689h-92l101 527h-6zM365 858v-6q0 -10 3.5 -21t10.5 -20t18.5 -15t28.5 -6q36 0 57.5 21.5t26.5 46.5h77q-6 -24 -18.5 -48t-32.5 -43.5t-48 -31.5t-67 -12q-67 0 -97.5 31t-30.5 83v10.5t1 10.5h71z " glyph-name="afii10027" unicode="Й"/>
<glyph horiz-adv-x="550" d="M21 0l127 689h90l-55 -297h105q16 0 34 3t36.5 13t36 30t32.5 55l86 196h93l-89 -209q-22 -52 -53 -84.5t-65 -43.5q39 -14 56 -49.5t22 -86.5l24 -216h-94l-21 206q-3 34 -13 55.5t-24.5 32.5t-32.5 15t-37 4h-110l-58 -313h-90z" glyph-name="afii10028" unicode="К"/>
<glyph horiz-adv-x="622" d="M307 605l-42 -218q-19 -97 -42 -167t-55 -118.5t-74.5 -78.5t-100.5 -46l-25 79q46 17 78 41t55 62t40 94.5t33 139.5l57 296h424l-133 -689h-94l117 605h-238z" glyph-name="afii10029" unicode="Л"/>
<glyph horiz-adv-x="742" d="M372 225l120 183l189 281h89l-131 -689h-92l91 469h-5l-88 -133l-161 -234h-68l-68 215l-44 152h-5l-90 -469h-91l131 689h83l84 -281l50 -183h6z" glyph-name="afii10030" unicode="М"/>
<glyph horiz-adv-x="609" d="M429 0l60 307h-323l-60 -307h-92l134 689h92l-58 -298h323l58 298h94l-134 -689h-94z" glyph-name="afii10031" unicode="Н"/>
<glyph horiz-adv-x="610" d="M563 218q-20 -103 -89 -164t-191 -61q-46 0 -87 14t-72 40.5t-49.5 65t-18.5 88.5q0 27 6 56l42 214q20 104 86.5 164.5t188.5 60.5q51 0 93.5 -15.5t73 -43t47.5 -65t17 -81.5q0 -23 -4 -43zM514 440q2 10 3 19.5t1 17.5q0 33 -12 58t-32 42t-45.5 25.5t-53.5 8.5 q-72 0 -119 -37.5t-63 -121.5l-39 -204q-2 -12 -3 -22.5t-1 -21.5q0 -33 10.5 -56.5t28.5 -39t42 -23t51 -7.5q86 0 132 44.5t63 128.5z" glyph-name="afii10032" unicode="О"/>
<glyph horiz-adv-x="609" d="M429 0l118 605h-323l-118 -605h-92l134 689h509l-134 -689h-94z" glyph-name="afii10033" unicode="П"/>
<glyph horiz-adv-x="554" d="M410 689q43 0 75.5 -15.5t54 -41t32 -58t10.5 -67.5q0 -40 -16 -81t-45.5 -74t-72 -54t-95.5 -21h-201l-54 -277h-92l134 689h270zM216 605l-47 -243h174q29 0 56 10t47.5 28.5t32.5 44t12 55.5q0 49 -29 77t-79 28h-167z" glyph-name="afii10034" unicode="Р"/>
<glyph horiz-adv-x="535" d="M373 696q57 0 109.5 -17t90.5 -49l-59 -71q-11 11 -28.5 21t-37.5 17.5t-41.5 11.5t-40.5 4q-70 0 -114.5 -37.5t-61.5 -123.5l-43 -210q-2 -11 -3 -21.5t-1 -19.5q0 -32 11 -55t30 -38t44.5 -22.5t55.5 -7.5q39 0 85.5 13.5t82.5 39.5l38 -76q-18 -13 -42 -24 t-52.5 -19.5t-59 -13.5t-60.5 -5q-46 0 -87.5 13t-72.5 37.5t-49 60t-18 80.5q0 11 1.5 23t3.5 24l47 240q20 104 85 164.5t187 60.5z" glyph-name="afii10035" unicode="С"/>
<glyph horiz-adv-x="522" d="M392 604l-117 -604h-93l117 604h-198l16 85h490l-16 -85h-199z" glyph-name="afii10036" unicode="Т"/>
<glyph horiz-adv-x="552" d="M303 119q-24 -42 -45 -66.5t-43 -38t-46.5 -17.5t-53.5 -4h-55l11 85h43q35 0 57.5 12t39.5 44l12 22l-97 533h92l35 -219l33 -213h5l114 209l123 223h99z" glyph-name="afii10037" unicode="У"/>
<glyph horiz-adv-x="772" d="M522 665q111 -5 173.5 -65t62.5 -169q0 -75 -21.5 -142t-65.5 -117t-110.5 -81t-156.5 -34l-11 -57h-93l11 57q-110 8 -170 69t-60 170q0 83 24.5 149t70 113.5t109.5 74.5t144 32l6 31h93zM420 138q63 5 109.5 29t77 62t45.5 88t15 108q0 35 -9.5 64.5t-29 50.5 t-49.5 33t-72 12zM413 584q-61 -2 -106 -26t-74.5 -62.5t-44 -88.5t-14.5 -105q0 -72 35 -115.5t118 -48.5z" glyph-name="afii10038" unicode="Ф"/>
<glyph horiz-adv-x="550" d="M402 0l-105 278l-211 -278h-109l279 353l-133 336h103l94 -260l194 260h109l-263 -336l145 -353h-103z" glyph-name="afii10039" unicode="Х"/>
<glyph horiz-adv-x="636" d="M489 0h-475l133 689h92l-117 -606h323l117 606h94l-117 -604l57 -1l-45 -233h-91z" glyph-name="afii10040" unicode="Ц"/>
<glyph horiz-adv-x="583" d="M224 690l-38 -192q-3 -15 -4 -28.5t-2 -25.5q0 -55 30.5 -80t93.5 -25q45 0 93.5 18t83.5 40l57 293h93l-134 -689h-93l58 302q-39 -22 -87.5 -36.5t-92.5 -14.5q-53 0 -90.5 12t-61.5 33.5t-35 52.5t-11 69q0 34 7 68l40 203h93z" glyph-name="afii10041" unicode="Ч"/>
<glyph horiz-adv-x="889" d="M924 689l-132 -689h-752l131 689h91l-115 -606h239l116 606h89l-116 -606h242l116 606h91z" glyph-name="afii10042" unicode="Ш"/>
<glyph horiz-adv-x="886" d="M455 83h242l117 606h94l-117 -604l57 -1l-45 -233h-91l29 149h-726l133 689h92l-117 -606h242l117 606h90z" glyph-name="afii10043" unicode="Щ"/>
<glyph horiz-adv-x="739" d="M426 689l-55 -284h172q85 0 131.5 -45.5t46.5 -121.5q0 -46 -14 -89t-42.5 -76t-72 -53t-101.5 -20h-288l116 604h-217l16 85h308zM356 320l-46 -236h173q66 0 107 38.5t41 105.5q0 92 -118 92h-157z" glyph-name="afii10044" unicode="Ъ"/>
<glyph horiz-adv-x="789" d="M590 0l131 689h91l-131 -689h-91zM36 0l131 689h91l-54 -284h171q85 0 131.5 -45.5t46.5 -121.5q0 -46 -14 -89t-42.5 -76t-71.5 -53t-101 -20h-288zM188 320l-45 -236h173q66 0 106.5 38.5t40.5 105.5q0 92 -117 92h-158z" glyph-name="afii10045" unicode="Ы"/>
<glyph horiz-adv-x="591" d="M45 0l131 689h91l-54 -284h171q85 0 131.5 -45.5t46.5 -121.5q0 -46 -14 -89t-42.5 -76t-71.5 -53t-101 -20h-288zM197 320l-45 -236h173q66 0 106.5 38.5t40.5 105.5q0 92 -117 92h-158z" glyph-name="afii10046" unicode="Ь"/>
<glyph horiz-adv-x="528" d="M192 396h237l11 57q2 11 3 21t1 19q0 31 -11 53t-30 35.5t-43.5 20t-52.5 6.5q-83 0 -161 -51l-32 82q37 26 92 42t115 16q50 0 90 -13.5t68 -38t43 -59t15 -77.5q0 -20 -5 -48l-45 -242q-10 -52 -28 -93.5t-48.5 -71t-76 -45t-110.5 -15.5q-28 0 -58 4t-58.5 11.5 t-53.5 19t-41 27.5l57 71q12 -11 29.5 -20t38 -15t42 -9.5t41.5 -3.5q72 0 116.5 36.5t60.5 122.5l14 75h-236z" glyph-name="afii10047" unicode="Э"/>
<glyph horiz-adv-x="777" d="M731 225q-20 -107 -84 -169.5t-172 -62.5q-50 0 -90 13.5t-68 37.5t-43.5 58.5t-15.5 76.5q0 11 1 22.5t3 23.5l16 82h-96l-59 -307h-92l133 689h92l-57 -298h96l13 72q10 52 29.5 95t51 73.5t76.5 47.5t106 17q47 0 85.5 -14.5t65.5 -40t41.5 -61t14.5 -77.5 q0 -12 -1.5 -24t-3.5 -25zM681 446q2 12 3.5 22.5t1.5 21.5q0 61 -35.5 91t-89.5 30q-64 0 -104.5 -37.5t-57.5 -121.5l-42 -216q-2 -12 -3 -22.5t-1 -20.5q0 -30 9.5 -52t25.5 -36t37 -20.5t45 -6.5q66 0 109.5 36.5t60.5 121.5z" glyph-name="afii10048" unicode="Ю"/>
<glyph horiz-adv-x="569" d="M614 689l-127 -689h-90l55 297h-134q-17 -1 -35.5 -5.5t-36.5 -16.5t-35 -32.5t-30 -53.5l-78 -189h-96l84 209q17 44 38.5 72.5t57.5 44.5q-48 19 -71.5 54t-23.5 89q0 51 18 92t50 69.5t76 43.5t95 15h283zM338 605q-32 0 -59.5 -8.5t-47.5 -25.5t-31.5 -42t-11.5 -58 q0 -52 33 -74.5t85 -22.5h160l43 231h-171z" glyph-name="afii10049" unicode="Я"/>
<glyph horiz-adv-x="501" d="M338 0v50q-35 -16 -60.5 -26.5t-45 -17t-34.5 -9t-28 -2.5q-63 0 -100 34.5t-37 97.5q0 11 1.5 22t3.5 23l30 152q17 85 63 131t131 46q13 0 28 -1.5t33.5 -7t41 -15.5t50.5 -26l20 44h75l-97 -495h-75zM398 370q-29 23 -64.5 36t-72.5 13q-40 0 -69 -24t-40 -81 l-26 -131q-2 -10 -3 -18.5t-1 -16.5q0 -37 19.5 -53t50.5 -16t74 17.5t89 40.5z" glyph-name="afii10065" unicode="а"/>
<glyph horiz-adv-x="490" d="M231 -5q-41 0 -76 10t-60 30t-39 49.5t-14 69.5q0 9 1 18.5t3 19.5q13 71 22.5 118.5t16.5 82t13 60.5t12 53q10 45 27.5 81.5t44.5 63.5t66 44.5t92 24.5q37 5 70.5 7.5t65.5 7.5l9 -76q-45 -6 -77 -8.5t-60 -7.5q-69 -11 -106.5 -48.5t-52.5 -117.5l-11 -50 q42 22 79 32.5t66 10.5q74 0 112 -35t38 -110q0 -5 -0.5 -13t-2.5 -24.5t-6.5 -43.5l-11.5 -69q-15 -88 -69.5 -134t-151.5 -46zM231 75q34 0 58 7.5t40 22t25.5 36.5t15.5 51q6 30 9 50t4.5 32.5t1.5 19.5v12q0 17 -3.5 32t-12 26.5t-23 18.5t-37.5 7q-32 0 -70.5 -14 t-77.5 -35q-2 -8 -3.5 -17t-5 -24.5t-8.5 -40t-12 -62.5q-3 -18 -3 -33q0 -45 24.5 -67t77.5 -22z" glyph-name="afii10066" unicode="б"/>
<glyph horiz-adv-x="478" d="M284 501q44 0 74.5 -11.5t49 -29t26.5 -38.5t8 -40q0 -14 -4 -30t-12.5 -31t-21.5 -27.5t-31 -19.5q38 -10 56 -37.5t18 -60.5q0 -34 -12 -67t-38.5 -59t-68 -42t-100.5 -16q-38 0 -71.5 6.5t-62 15.5t-49.5 19t-33 18l56 279q6 31 21 61.5t41 55t63.5 39.5t90.5 15z M277 423q-35 0 -58 -12.5t-37.5 -29.5t-22 -36t-9.5 -31l-41 -215q7 -4 19.5 -9t28 -9t33 -7t34.5 -3q44 0 71 10t41.5 24t19.5 30.5t5 29.5q0 28 -17 47.5t-64 19.5h-58l13 69h44q36 0 54.5 19t18.5 44q0 22 -16.5 40.5t-58.5 18.5z" glyph-name="afii10067" unicode="в"/>
<glyph horiz-adv-x="452" d="M286 501q30 0 58 -8t50 -24t35 -38.5t13 -50.5q0 -51 -22.5 -82t-56 -50t-73.5 -28t-76 -15q-16 -3 -33 -8t-31.5 -13.5t-23.5 -22t-9 -32.5q0 -17 8 -28.5t20.5 -18.5t29 -10.5t33.5 -3.5q46 0 83.5 12.5t77.5 41.5l41 -65q-57 -38 -107 -50.5t-102 -12.5q-77 0 -124 32 t-47 89q0 55 24.5 86.5t60.5 49t79 26t79 18t60.5 24.5t24.5 46q0 26 -24 43t-63 17q-38 0 -70.5 -10.5t-71.5 -32.5l-35 66q45 29 90.5 41t101.5 12z" glyph-name="afii10068" unicode="г"/>
<glyph horiz-adv-x="505" d="M297 718q100 0 153 -43t53 -146q0 -23 -3 -48.5t-8 -54.5l-46 -247q-20 -93 -77.5 -139.5t-148.5 -46.5q-85 0 -135 42t-50 126q0 23 6 49l19 86q9 39 23.5 72t38.5 56.5t58.5 36.5t82.5 13q19 0 39.5 -4t40 -10.5t36.5 -16t30 -20.5l6 33q4 20 5.5 37.5t1.5 32.5 q0 60 -30.5 89t-103.5 29q-19 0 -43 -2.5t-54 -7.5l-13 70q29 8 59.5 11t59.5 3zM268 394q-49 0 -80.5 -27t-45.5 -90l-16 -72q-2 -9 -2.5 -18t-1.5 -17q0 -53 28.5 -75t73.5 -22q23 0 45 6.5t41 20.5t33 36.5t22 54.5l15 64q1 5 3.5 17t4.5 25.5t4 25t2 15.5 q-20 23 -53 39.5t-73 16.5z" glyph-name="afii10069" unicode="д"/>
<glyph horiz-adv-x="470" d="M289 501q75 0 121 -36t46 -99q0 -31 -11 -61.5t-42.5 -54.5t-87.5 -38.5t-145 -14.5h-21t-22 1q-5 -20 -5 -36q0 -39 25.5 -64.5t76.5 -25.5q29 0 58 11t52 36l58 -62q-37 -34 -80.5 -48.5t-91.5 -14.5q-87 0 -134 44t-47 119q0 34 7.5 80t20.5 90q23 82 78.5 128 t143.5 46zM284 423q-64 0 -98 -40t-48 -110q12 -1 23 -1h22q60 0 96 8t55.5 20.5t26 27.5t6.5 29q0 32 -20 49t-63 17z" glyph-name="afii10070" unicode="е"/>
<glyph horiz-adv-x="689" d="M172 497l16 -136q3 -24 11.5 -37.5t20.5 -20.5t26.5 -8.5t28.5 -1.5h46l37 203h83l-37 -203h47q14 0 28 1.5t28 8t26.5 20t23.5 38.5l60 136h90l-61 -141q-17 -37 -38.5 -63t-50.5 -34q32 -8 42.5 -32.5t15.5 -61.5l22 -165h-85l-17 145q-3 24 -9.5 38.5t-17 22t-24 10 t-30.5 2.5h-64l-40 -218h-83l40 218h-57q-17 0 -32 -2t-28.5 -9.5t-25 -22t-21.5 -39.5l-57 -145h-88l71 169q16 38 37.5 64t57.5 34q-26 8 -40 32.5t-19 60.5l-17 137h84z" glyph-name="afii10072" unicode="ж"/>
<glyph horiz-adv-x="456" d="M265 498q34 0 64 -8t52.5 -24t35.5 -40t13 -56q0 -39 -20 -71.5t-62 -49.5q32 -16 43.5 -39t11.5 -48q0 -41 -16 -72t-44 -52t-66.5 -32t-84.5 -11q-26 0 -52.5 4.5t-50.5 12t-44 18.5t-33 24l53 58q22 -18 57.5 -29.5t71.5 -11.5q58 0 89.5 21.5t31.5 64.5q0 29 -24 45 t-59 16h-76l15 72h76q17 0 34 3t30.5 11t21.5 21.5t8 33.5q0 31 -24.5 47.5t-66.5 16.5q-30 0 -61 -7.5t-71 -26.5l-30 65q44 21 85 32.5t92 11.5z" glyph-name="afii10073" unicode="з"/>
<glyph horiz-adv-x="501" d="M344 0l-2 52q-31 -20 -56 -31t-45.5 -17t-37 -7.5t-29.5 -1.5q-63 0 -100.5 34.5t-37.5 97.5q0 11 1.5 22t3.5 23l64 324h86l-61 -313q-2 -10 -3 -18.5t-1 -16.5q0 -37 19.5 -53t50.5 -16q30 0 74.5 18t89.5 48l69 351h85l-96 -496h-74z" glyph-name="afii10074" unicode="и"/>
<glyph horiz-adv-x="501" d="M343 0l-2 52q-31 -20 -56 -31t-45.5 -17t-37 -7.5t-29.5 -1.5q-63 0 -100.5 34.5t-37.5 97.5q0 11 1.5 22t3.5 23l64 324h86l-61 -313q-2 -10 -3 -18.5t-1 -16.5q0 -37 19.5 -53t50.5 -16q30 0 74.5 18t89.5 48l69 351h85l-96 -496h-74zM272 707q-5 -26 9.5 -44.5 t46.5 -18.5q16 0 30.5 6t26.5 15.5t19.5 20.5t9.5 21h72q-5 -22 -16.5 -45t-31.5 -41.5t-49.5 -30.5t-70.5 -12q-39 0 -63.5 13t-38 32t-17 41.5t-0.5 42.5h73z" glyph-name="afii10075" unicode="й"/>
<glyph horiz-adv-x="470" d="M484 497l-61 -141q-17 -37 -38.5 -63t-50.5 -34q32 -8 42.5 -32.5t15.5 -61.5l22 -165h-85l-17 145q-3 24 -9.5 38.5t-17 22t-24 10t-30.5 2.5h-96l-39 -218h-83l91 496h83l-38 -203h79q14 0 28 1.5t28 8t26.5 20t23.5 38.5l60 136h90z" glyph-name="afii10076" unicode="к"/>
<glyph horiz-adv-x="517" d="M239 419l-26 -134q-15 -77 -34 -127.5t-44 -83.5t-55.5 -52.5t-67.5 -33.5l-29 69q26 13 47.5 27.5t39.5 39t32.5 64t26.5 102.5l40 205h344l-96 -495h-86l81 419h-173z" glyph-name="afii10077" unicode="л"/>
<glyph horiz-adv-x="594" d="M296 178l231 317h77l-96 -495h-86l59 308l-175 -237h-61l-87 238l-60 -309h-87l96 495h80z" glyph-name="afii10078" unicode="м"/>
<glyph horiz-adv-x="505" d="M329 0l41 211h-233l-41 -211h-86l96 495h86l-40 -206h233l40 206h86l-96 -495h-86z" glyph-name="afii10079" unicode="н"/>
<glyph horiz-adv-x="505" d="M455 171q-11 -52 -32.5 -86t-51 -54t-65.5 -28t-76 -8q-34 0 -66.5 10.5t-58 32t-41 53.5t-15.5 75q0 11 1 22t3 23l20 106q17 86 68.5 135t149.5 49q45 0 80 -14t59.5 -38t37.5 -56t13 -68q0 -22 -4 -41zM393 282q4 16 4 34q0 50 -31 77.5t-79 27.5q-50 0 -84.5 -26 t-46.5 -91l-18 -98q-3 -18 -3 -33q0 -27 9 -46t23.5 -30.5t32.5 -17t36 -5.5q21 0 42 4t40 17t33.5 36t22.5 61z" glyph-name="afii10080" unicode="о"/>
<glyph horiz-adv-x="497" d="M355 501q63 0 100 -34t37 -97q0 -11 -1.5 -22.5t-3.5 -23.5l-63 -324h-86l61 313q2 10 3 18.5t1 16.5q0 38 -20 53.5t-52 15.5q-31 0 -72.5 -15.5t-88.5 -45.5l-69 -356h-86l97 496h75v-52q37 21 63 32.5t45 17t33 6.5t27 1z" glyph-name="afii10081" unicode="п"/>
<glyph horiz-adv-x="496" d="M188 495v-52q64 35 102.5 46t65.5 11q63 0 100 -30t37 -96q0 -12 -1 -24.5t-4 -26.5l-30 -152q-17 -85 -65 -131t-143 -46q-27 0 -60 5.5t-83 25.5l-43 -223h-84l133 693h75zM123 106q44 -20 74 -25.5t61 -5.5q20 0 38.5 4.5t33.5 16t26 31t17 48.5l28 142q2 10 3 18.5 t1 16.5q0 37 -20 51t-53 14q-29 0 -73.5 -17t-86.5 -41z" glyph-name="afii10082" unicode="р"/>
<glyph horiz-adv-x="426" d="M276 501q43 0 88 -14t72 -51l-54 -60q-23 28 -52.5 37t-51.5 9q-49 0 -84 -27.5t-47 -90.5l-22 -112q-3 -15 -3 -28q0 -24 9 -41t23 -27.5t32 -15.5t36 -5q23 0 54.5 9t59.5 32l49 -65q-38 -32 -84 -44t-89 -12q-34 0 -65.5 9.5t-56 28.5t-39.5 48t-15 69q0 22 4 41 l25 133q16 85 69.5 131t141.5 46z" glyph-name="afii10083" unicode="с"/>
<glyph horiz-adv-x="757" d="M600 0l62 316q3 15 3 29q0 35 -19 54t-51 19q-25 0 -58.5 -10t-75.5 -39q0 -10 -2.5 -29.5t-4.5 -28.5l-60 -311h-85l61 313q4 16 4 34q0 69 -65 69q-22 0 -56.5 -14.5t-83.5 -49.5l-68 -352h-86l96 496h76v-53q31 21 52.5 32.5t38 17.5t29 7t25.5 1q43 0 68.5 -13.5 t44.5 -45.5q57 35 97.5 47t72.5 12q65 0 102 -36.5t37 -96.5q0 -22 -4 -41l-63 -327h-87z" glyph-name="afii10084" unicode="т"/>
<glyph horiz-adv-x="447" d="M328 353q22 41 32 66.5t10 57.5v20h87v-19q0 -45 -12.5 -76.5t-33.5 -68.5l-293 -534h-91l111 210l-35 35l-48 452h88l17 -204l17 -216h3z" glyph-name="afii10085" unicode="у"/>
<glyph horiz-adv-x="629" d="M190 -199l37 193q-39 3 -72 16.5t-57 37.5t-37.5 59t-13.5 82q0 69 20 125t57 96.5t88 64t114 26.5l36 188h85l-36 -188q86 -5 133 -54t47 -142q0 -72 -21.5 -129t-59.5 -96.5t-89 -61.5t-109 -24l-37 -193h-85zM310 421q-38 -1 -70.5 -17t-56.5 -45t-37.5 -70.5 t-13.5 -93.5q0 -57 31.5 -86.5t79.5 -34.5zM328 74q36 2 68.5 18.5t57 45.5t39 70.5t14.5 94.5q0 57 -31 85.5t-81 32.5z" glyph-name="afii10086" unicode="ф"/>
<glyph horiz-adv-x="434" d="M294 0l-74 186l-143 -186h-110l215 254l-109 242h97l68 -173l138 173h106l-206 -240l117 -256h-99z" glyph-name="afii10087" unicode="х"/>
<glyph horiz-adv-x="504" d="M441 151q-2 -9 -3 -18t-1 -19q0 -24 11 -46.5t37 -37.5l-34 -159h-82l20 126q-17 11 -27.5 28t-10.5 39h-2q-27 -24 -53.5 -37.5t-50.5 -20.5t-44 -9t-33 -2q-63 0 -100.5 34.5t-37.5 97.5q0 11 1.5 22t3.5 23l64 324h86l-61 -313q-2 -10 -2.5 -18.5t-1.5 -16.5 q0 -37 19.5 -53t50.5 -16q30 0 74.5 18t89.5 48l69 351h85z" glyph-name="afii10088" unicode="ц"/>
<glyph horiz-adv-x="468" d="M171 167q-67 0 -99 32t-32 92q0 12 1 25.5t4 27.5l30 153h86l-27 -142q-2 -10 -3 -18.5t-1 -16.5q0 -38 19.5 -53.5t51.5 -15.5q31 0 72.5 15t84.5 40l37 191h86l-96 -497h-86l42 221q-32 -17 -57.5 -27.5t-46 -16.5t-37 -8t-29.5 -2z" glyph-name="afii10089" unicode="ч"/>
<glyph horiz-adv-x="757" d="M185 496l-62 -316q-3 -15 -3 -29q0 -35 19 -54t51 -19q26 0 59 10t75 39q0 10 2.5 29.5t4.5 28.5l60 311h85l-61 -313q-3 -18 -3 -33q0 -70 64 -70q22 0 56.5 14.5t83.5 49.5l68 352h86l-96 -496h-76v53q-30 -21 -51.5 -32.5t-38 -17.5t-29.5 -7t-26 -1q-43 0 -68.5 13.5 t-44.5 45.5q-57 -35 -97.5 -47t-72.5 -12q-65 0 -102 36.5t-37 97.5q0 9 1 19t3 21l63 327h87z" glyph-name="afii10090" unicode="ш"/>
<glyph horiz-adv-x="768" d="M684 496h85l-67 -345q-2 -9 -3 -18t-1 -19q0 -24 9.5 -46t35.5 -37l-34 -160h-80l18 127q-35 23 -35 66h-2q-30 -24 -54.5 -38t-44.5 -21t-36.5 -8.5t-30.5 -1.5q-39 0 -64 15t-42 44q-57 -35 -97.5 -47t-72.5 -12q-65 0 -102 36.5t-37 97.5q0 9 1 19t3 21l63 327h87 l-62 -316q-3 -15 -3 -29q0 -35 19 -54t51 -19q26 0 59 10t75 39q0 10 2.5 29.5t4.5 28.5l60 311h85l-61 -313q-3 -18 -3 -33q0 -70 64 -70q22 0 56.5 14.5t83.5 49.5z" glyph-name="afii10091" unicode="щ"/>
<glyph horiz-adv-x="583" d="M54 496h251l-37 -183h2q54 25 90 32.5t61 7.5q32 0 58 -10t44 -28t27 -43t7 -55q-2 -20 -6 -45t-9 -44q-9 -33 -23.5 -58t-38.5 -42.5t-59 -26.5t-86 -9q-47 0 -100 12.5t-105 38.5l75 377h-165zM336 69q33 0 55 6t36.5 16.5t22 24t10.5 28.5q1 4 2.5 11.5t3 15.5l3 16 t1.5 13q4 41 -13 57.5t-52 16.5q-29 0 -71.5 -16t-83.5 -39l-27 -128q32 -13 62.5 -17.5t50.5 -4.5z" glyph-name="afii10092" unicode="ъ"/>
<glyph horiz-adv-x="632" d="M461 0l95 495h81l-95 -495h-81zM437 217q-2 -20 -6 -45t-9 -44q-9 -33 -23.5 -58t-38.5 -42.5t-59 -26.5t-86 -9q-47 0 -100 12.5t-105 38.5l90 453h85l-37 -183h2q54 25 90 32.5t61 7.5q32 0 58 -10t44 -28t27 -43t7 -55zM216 69q33 0 55 6t36.5 16.5t22 24t10.5 28.5 q1 4 2.5 11.5t3 15.5l3 16t1.5 13q4 41 -13 57.5t-52 16.5q-29 0 -71.5 -16t-83.5 -39l-27 -128q32 -13 62.5 -17.5t50.5 -4.5z" glyph-name="afii10093" unicode="ы"/>
<glyph horiz-adv-x="463" d="M437 217q-2 -20 -6 -45t-9 -44q-9 -33 -23.5 -58t-38.5 -42.5t-59 -26.5t-86 -9q-47 0 -100 12.5t-105 38.5l90 453h85l-37 -183h2q54 25 90 32.5t61 7.5q32 0 58 -10t44 -28t27 -43t7 -55zM216 69q33 0 55 6t36.5 16.5t22 24t10.5 28.5q1 4 2.5 11.5t3 15.5l3 16t1.5 13 q4 41 -13 57.5t-52 16.5q-29 0 -71.5 -16t-83.5 -39l-27 -128q32 -13 62.5 -17.5t50.5 -4.5z" glyph-name="afii10094" unicode="ь"/>
<glyph horiz-adv-x="425" d="M201 -5q-21 0 -45 3t-47.5 10t-45 19.5t-39.5 31.5l53 62q13 -15 29 -24t32 -14t31 -6.5t26 -1.5q27 0 46.5 5.5t33.5 19t24 35.5t16 54l6 31h-176l14 73h177l3 14q4 17 4 36q0 44 -26.5 61t-68.5 17q-23 0 -53 -7.5t-58 -30.5l-51 60q42 35 87.5 46.5t88.5 11.5 q83 0 124 -41.5t41 -105.5q0 -9 -1 -18.5t-3 -19.5l-24 -138q-15 -85 -61.5 -134t-136.5 -49z" glyph-name="afii10095" unicode="э"/>
<glyph horiz-adv-x="630" d="M593 175q-6 -33 -19 -65.5t-37 -58t-62 -41t-94 -15.5q-39 0 -71.5 10t-56 29.5t-36.5 48t-13 64.5v16t2 16l4 32h-73l-41 -211h-86l96 495h86l-41 -207h73l6 31q17 86 69.5 134t142.5 48q85 0 130.5 -44t45.5 -114q0 -22 -4 -42zM530 304q3 16 3 30q0 24 -8 40.5 t-21.5 27t-32 15t-38.5 4.5q-43 0 -77 -26.5t-45 -90.5l-19 -112q-3 -17 -3 -30q0 -47 28 -67t76 -20q50 0 77.5 26t40.5 91z" glyph-name="afii10096" unicode="ю"/>
<glyph horiz-adv-x="470" d="M303 201h-78q-28 0 -50.5 -9t-39.5 -46l-55 -146h-85l67 171q19 51 66 63q-35 11 -48.5 35.5t-13.5 55.5q0 24 5 44q18 77 65.5 107.5t128.5 30.5q50 0 107.5 -12.5t107.5 -36.5l-85 -458h-80l81 414q-38 14 -70 19.5t-58 5.5q-52 0 -79 -22t-38 -66q-3 -14 -3 -22 q0 -23 14.5 -41t60.5 -19h89z" glyph-name="afii10097" unicode="я"/>
<glyph horiz-adv-x="470" d="M285 501q75 0 121 -36t46 -99q0 -31 -11 -61.5t-42.5 -54.5t-87.5 -38.5t-145 -14.5h-21t-22 1q-5 -20 -5 -36q0 -39 25.5 -64.5t76.5 -25.5q29 0 58 11t52 36l58 -62q-37 -34 -80.5 -48.5t-91.5 -14.5q-87 0 -134 44t-47 119q0 34 7.5 80t20.5 90q23 82 78.5 128 t143.5 46zM280 423q-64 0 -98 -40t-48 -110q12 -1 23 -1h22q60 0 96 8t55.5 20.5t26 27.5t6.5 29q0 32 -20 49t-63 17zM483 646q-5 -20 -22 -34.5t-37 -14.5q-17 0 -28 11t-11 28q0 23 18 40.5t40 17.5q18 0 29.5 -11t11.5 -28q0 -6 -1 -9zM287 646q-5 -20 -21.5 -34.5 t-36.5 -14.5q-17 0 -28.5 11t-11.5 28q0 23 18 40.5t41 17.5q18 0 29 -11t11 -28q0 -6 -1 -9z" glyph-name="afii10071" unicode="ё"/>
<glyph horiz-adv-x="522" d="M253 -2q5 -1 9.5 -1h9.5q28 0 46.5 6t30.5 19.5t19.5 35t13.5 53.5l38 202q2 10 3 18.5t1 16.5q0 38 -19.5 53.5t-51.5 15.5q-31 0 -74 -15t-86 -40l-70 -362h-86l111 572h-46l13 68h46l15 76h86l-15 -76h218l-13 -68h-218l-26 -132q34 19 60.5 31t47.5 19t37 9t30 2 q66 0 97.5 -31.5t31.5 -89.5q0 -26 -6 -56l-41 -224q-9 -44 -22.5 -78.5t-35 -57.5t-53 -35t-75.5 -12q-20 0 -42 3z" glyph-name="afii10099" unicode="ђ"/>
<glyph horiz-adv-x="452" d="M277 571l107 177l76 -25l-134 -172zM286 501q30 0 58 -8t50 -24t35 -38.5t13 -50.5q0 -51 -22.5 -82t-56 -50t-73.5 -28t-76 -15q-16 -3 -33 -8t-31.5 -13.5t-23.5 -22t-9 -32.5q0 -17 8 -28.5t20.5 -18.5t29 -10.5t33.5 -3.5q46 0 83.5 12.5t77.5 41.5l41 -65 q-57 -38 -107 -50.5t-102 -12.5q-77 0 -124 32t-47 89q0 55 24.5 86.5t60.5 49t79 26t79 18t60.5 24.5t24.5 46q0 26 -24 43t-63 17q-38 0 -70.5 -10.5t-71.5 -32.5l-35 66q45 29 90.5 41t101.5 12z" glyph-name="afii10100" unicode="ѓ"/>
<glyph horiz-adv-x="426" d="M283 501q21 0 43.5 -3t44 -10.5t40 -20t32.5 -31.5l-59 -60q-23 28 -52.5 37t-51.5 9q-57 0 -84.5 -28t-40.5 -90l-4 -18h163l-14 -70h-163l-4 -24q-3 -15 -3 -28q0 -24 9 -41t23 -27.5t32 -15.5t36 -5q23 0 54.5 9t59.5 32l49 -65q-38 -32 -84 -44t-89 -12 q-34 0 -65.5 9.5t-56 28.5t-39.5 48t-15 69q0 22 4 41l25 133q16 85 67.5 131t142.5 46z" glyph-name="afii10101" unicode="є"/>
<glyph horiz-adv-x="454" d="M285 501q56 0 98.5 -11.5t77.5 -40.5l-49 -64q-30 22 -61.5 31t-69.5 9q-51 0 -81 -22.5t-30 -54.5q0 -14 8 -23.5t20.5 -16.5t28.5 -11t31 -7q23 -4 52 -11t54 -21t42 -37t17 -60q0 -41 -16.5 -72.5t-45.5 -52.5t-68 -31.5t-84 -10.5q-52 0 -101.5 14t-91.5 52l53 62 q32 -31 68.5 -42.5t82.5 -11.5q19 0 39.5 4.5t38 14.5t28.5 26t11 39q0 27 -18 39.5t-50 19.5q-26 6 -57.5 12t-60 19t-47.5 35.5t-19 61.5q0 40 18 70.5t46.5 51t64 30.5t71.5 10z" glyph-name="afii10102" unicode="ѕ"/>
<glyph horiz-adv-x="248" d="M218 497l-67 -348q-2 -11 -3 -19t-1 -15q0 -25 10 -31t38 -12l-16 -76h-11q-57 0 -84.5 21.5t-27.5 71.5q0 9 2.5 21t4.5 23l70 364h85zM254 646q-5 -21 -22.5 -36t-38.5 -15q-17 0 -29 12t-12 29q0 24 18.5 42t41.5 18q19 0 31 -11.5t12 -29.5q0 -6 -1 -9z" glyph-name="afii10103" unicode="і"/>
<glyph horiz-adv-x="248" d="M353 639q-5 -20 -22 -34.5t-37 -14.5q-17 0 -28 11t-11 28q0 23 18 40.5t40 17.5q18 0 29.5 -11t11.5 -28q0 -6 -1 -9zM157 639q-5 -20 -21.5 -34.5t-36.5 -14.5q-17 0 -28.5 11t-11.5 28q0 23 18 40.5t41 17.5q18 0 29 -11t11 -28q0 -6 -1 -9zM218 496l-67 -347 q-2 -11 -3 -19t-1 -15q0 -25 12.5 -32.5t35.5 -10.5l-16 -76h-11q-51 0 -80 24t-29 74q0 20 4 39l70 363h85z" glyph-name="afii10104" unicode="ї"/>
<glyph horiz-adv-x="243" d="M143 497h84l-106 -550q-7 -35 -16 -64t-25 -50t-41.5 -32.5t-64.5 -11.5q-28 0 -62 6l15 78q27 -3 45.5 0t31.5 13.5t21 28t13 44.5zM219 696q19 0 31 -11.5t12 -29.5q0 -24 -19.5 -42t-42.5 -18q-17 0 -29 12t-12 29q0 24 18.5 42t41.5 18z" glyph-name="afii10105" unicode="ј"/>
<glyph horiz-adv-x="748" d="M501 69q33 0 55 6t36.5 16.5t22 24t10.5 28.5q1 4 2.5 11.5t3 15.5l3 16t1.5 13q4 41 -13 57.5t-52 16.5q-29 0 -71.5 -16t-83.5 -39l-27 -128q32 -13 62.5 -17.5t50.5 -4.5zM254 425l-26 -139q-15 -77 -34.5 -127t-44.5 -83t-57.5 -52.5t-72.5 -34.5l-29 69 q28 14 51 28.5t42 39t34 63.5t27 102l40 206h285l-36 -184h2q54 25 90 32.5t61 7.5q32 0 58 -10t44 -28t27 -43t7 -55q-2 -20 -6 -45t-9 -44q-9 -33 -23.5 -58t-38.5 -42.5t-59 -26.5t-86 -9q-47 0 -100 12.5t-105 38.5l75 382h-116z" glyph-name="afii10106" unicode="љ"/>
<glyph horiz-adv-x="751" d="M472 496l-36 -183h2q54 25 90 32.5t61 7.5q32 0 58 -10t44 -28t27 -43t7 -55q-2 -20 -6 -45t-9 -44q-9 -33 -23.5 -58t-38.5 -42.5t-59 -26.5t-86 -9q-47 0 -100 12.5t-105 38.5l37 186h-195l-44 -229h-86l96 496h86l-38 -194h195l39 194h84zM504 69q33 0 55 6t36.5 16.5 t22 24t10.5 28.5q1 4 2.5 11.5t3 15.5l3 16t1.5 13q4 41 -13 57.5t-52 16.5q-29 0 -71.5 -16t-83.5 -39l-27 -128q32 -13 62.5 -17.5t50.5 -4.5z" glyph-name="afii10107" unicode="њ"/>
<glyph horiz-adv-x="497" d="M358 501q67 0 102 -33t35 -95q0 -11 -1 -23t-4 -26l-63 -324h-86l61 313q2 10 3 18.5t1 16.5q0 38 -20 53.5t-52 15.5q-31 0 -74 -14t-87 -44l-69 -359h-86l112 572h-47l13 67h48l15 77h85l-15 -77h219l-13 -67h-220l-25 -128q33 19 58.5 30.5t45.5 17.5t35.5 7.5 t28.5 1.5z" glyph-name="afii10108" unicode="ћ"/>
<glyph horiz-adv-x="470" d="M247 571l107 177l76 -25l-134 -172zM484 497l-61 -141q-17 -37 -38.5 -63t-50.5 -34q32 -8 42.5 -32.5t15.5 -61.5l22 -165h-85l-17 145q-3 24 -9.5 38.5t-17 22t-24 10t-30.5 2.5h-96l-39 -218h-83l91 496h83l-38 -203h79q14 0 28 1.5t28 8t26.5 20t23.5 38.5l60 136h90 z" glyph-name="afii10109" unicode="ќ"/>
<glyph horiz-adv-x="447" d="M328 353q22 41 32 66.5t10 57.5v20h87v-19q0 -45 -12.5 -76.5t-33.5 -68.5l-293 -534h-91l111 210l-35 35l-48 452h88l17 -204l17 -216h3zM222 707v-6q0 -10 3.5 -21t10.5 -20t18.5 -15t28.5 -6q36 0 57.5 21.5t26.5 46.5h77q-6 -24 -18.5 -48t-32.5 -43.5t-48 -31.5 t-67 -12q-67 0 -97.5 31t-30.5 83v10.5t1 10.5h71z" glyph-name="afii10110" unicode="ў"/>
<glyph horiz-adv-x="501" d="M160 -199l28 163l91 12l-49 -175h-70zM347 0l-2 52q-31 -20 -56 -31t-45.5 -17t-37 -7.5t-29.5 -1.5q-63 0 -100.5 34.5t-37.5 97.5q0 11 1.5 22t3.5 23l64 324h86l-61 -313q-2 -10 -3 -18.5t-1 -16.5q0 -37 19.5 -53t50.5 -16q30 0 74.5 18t89.5 48l69 351h85l-96 -496 h-74z" glyph-name="afii10193" unicode="џ"/>
<glyph horiz-adv-x="524" d="M232 605l-118 -605h-91l133 689h366l23 119h89l-39 -203h-363z" glyph-name="afii10050" unicode="Ґ"/>
<glyph horiz-adv-x="410" d="M400 599h83l-35 -180h-272l-82 -419h-86l96 496h276z" glyph-name="afii10098" unicode="ґ"/>
<glyph horiz-adv-x="470" d="M203 -5q-75 0 -121 36t-46 99q0 31 11 61.5t42.5 54.5t87.5 38.5t145 14.5h21t22 -1q5 20 5 36q0 39 -25.5 64.5t-76.5 25.5q-29 0 -58 -11t-52 -36l-58 62q37 34 80.5 48.5t91.5 14.5q87 0 134 -44t47 -119q0 -34 -7.5 -80t-20.5 -90q-23 -82 -78.5 -128t-143.5 -46z M208 73q64 0 98 40t48 110q-12 1 -23 1h-22q-60 0 -96 -8t-55.5 -20.5t-26 -27.5t-6.5 -29q0 -32 20 -49t63 -17z" glyph-name="schwacyrillic" unicode="ә"/>
</font>
</defs>
</svg>
